<svg width="1920" height="1043" viewBox="0 0 1920 1043" fill="none" xmlns="http://www.w3.org/2000/svg">
<path d="M1027.65 213.396C879.596 241.112 859.255 82.6804 867.591 0H1919V770.736L1806.96 825.968C1881.65 889.401 1964.32 997.889 1697.41 924.381C1430.51 850.872 1467.16 688.892 1518.84 617.091C1528.85 543.616 1457.48 469.306 1249 587C1040.52 704.694 987.971 525.54 968.13 442.859C1049.66 354.823 1175.71 185.68 1027.65 213.396Z" fill="#DFD390" fill-opacity="0.85"/>
<path d="M582.951 105.426C608.09 69.4277 467.157 39.6601 439 0H1919V991L1722.57 866.999C1699.74 841.731 1634 789.386 1553.62 782.157C1453.16 773.12 1364.19 527.63 1421.17 399.111C1478.15 270.592 1087.64 143.059 1026.5 181.5C965.361 219.941 538.478 169.111 582.951 105.426Z" fill="#EAE2B7" fill-opacity="0.66"/>
<path d="M762.601 150.488C572.536 163.245 487.007 55.478 468 0H1921V1029C1793.79 988.139 1529.37 867.25 1489.35 710.583C1439.33 514.749 1290.28 544.149 1253.77 564.58C1217.26 585.01 1098.72 591.986 993.181 510.264C887.644 428.542 931.66 357.285 979.676 320.908C1027.69 284.532 1000.18 134.542 762.601 150.488Z" fill="url(#paint0_linear)"/>
<defs>
<linearGradient id="paint0_linear" x1="1982.5" y1="-67.5" x2="1239.68" y2="883.484" gradientUnits="userSpaceOnUse">
<stop stop-color="#FF931F"/>
<stop offset="0.984375" stop-color="#D62828"/>
</linearGradient>
</defs>
</svg>
