<svg width="172" height="101" viewBox="0 0 172 101" fill="none" xmlns="http://www.w3.org/2000/svg">
<g clip-path="url(#clip0)">
<path d="M172 94.3575C172 88.5607 169.401 83.8614 166.194 83.8614C164.179 83.8614 162.404 85.7185 161.362 88.5371C161.011 88.3718 160.634 88.2862 160.253 88.2852C159.282 88.2852 158.385 88.8479 157.653 89.8004C156.715 86.286 154.725 83.8614 152.422 83.8614C150.268 83.8614 148.39 85.9826 147.387 89.1307C146.831 88.599 146.129 88.3004 145.4 88.2852C142.939 88.2852 140.944 91.8916 140.944 96.3403C140.934 97.8233 141.172 99.2951 141.646 100.678H170.829C171.564 98.9195 172 96.7309 172 94.3575Z" fill="#FF931F"/>
<path d="M172 100.982H13.0593V100.621H171.841L172 100.982Z" fill="#2F2E41"/>
<path d="M158.941 78.6353H0V78.2748H158.781L158.941 78.6353Z" fill="#2F2E41"/>
<path d="M67.4669 45.4582C67.4669 45.4582 68.4679 37.1515 70.1363 39.417C71.8047 41.6824 70.1363 45.0806 70.1363 45.0806L68.8016 46.9684L67.4669 45.8357V45.4582Z" fill="#FFB8B8"/>
<path d="M63.4629 48.1011C63.4629 48.1011 66.7996 43.9478 67.467 44.703C68.1343 45.4581 70.1363 45.8357 69.8027 47.346C69.469 48.8563 62.4619 53.7647 62.4619 53.7647L63.4629 48.1011Z" fill="#D62828"/>
<path opacity="0.1" d="M63.4629 48.1011C63.4629 48.1011 66.7996 43.9478 67.467 44.703C68.1343 45.4581 70.1363 45.8357 69.8027 47.346C69.469 48.8563 62.4619 53.7647 62.4619 53.7647L63.4629 48.1011Z" fill="black"/>
<path d="M44.4435 47.7236V50.7442C44.4435 50.7442 44.1098 57.5406 46.1118 57.163C48.1139 56.7854 47.1129 51.1218 47.1129 51.1218L46.7792 47.7236H44.4435Z" fill="#FFB8B8"/>
<path d="M45.4445 69.6229C45.4445 69.6229 42.4414 74.9089 41.4404 75.2865C40.4394 75.664 35.1006 79.0622 34.4333 82.4604L29.7618 89.2567L32.0976 92.6549C32.0976 92.6549 42.7751 79.8174 45.7782 78.6846C48.7812 77.5519 51.7843 71.8883 51.7843 71.8883L45.4445 69.6229Z" fill="#FFB8B8"/>
<path d="M69.1352 60.9386C69.1352 60.9386 75.475 62.0713 74.474 66.6022C73.473 71.1331 63.7965 80.5724 63.7965 80.5724L63.4628 82.8379L59.7924 83.593L58.124 81.7052L58.4577 80.5724C58.4577 80.5724 62.4618 76.4191 62.7955 74.9088C63.1291 73.3985 66.7995 67.3573 68.4679 66.9798L66.1322 65.4695L69.1352 60.9386Z" fill="#FFB8B8"/>
<path d="M30.7629 89.2566C30.7629 89.2566 32.0976 86.9912 30.0955 87.3687C28.0935 87.7463 26.7588 88.1239 26.7588 89.6342C26.7588 91.1445 28.4272 101.717 30.4292 100.961C32.4312 100.206 30.7629 96.8081 30.7629 96.8081C30.7629 96.8081 31.7639 93.7875 32.4312 93.4099C33.0986 93.0323 33.0986 91.1445 32.4312 91.1445C31.7639 91.1445 30.4292 90.0118 30.7629 89.2566Z" fill="#2F2E41"/>
<path d="M59.1251 80.9501C59.1251 80.9501 59.1251 79.0622 57.7904 80.9501C56.4557 82.838 55.7884 84.3482 57.1231 85.481C58.4578 86.6137 63.1292 89.2567 63.1292 89.2567C63.1292 89.2567 68.1343 90.3894 67.467 87.7464C67.467 87.7464 64.1302 85.8585 64.1302 84.3482C64.1302 82.8379 64.1302 80.1949 63.1292 80.9501C62.1282 81.7052 59.1251 82.0828 59.1251 80.9501Z" fill="#2F2E41"/>
<path d="M52.7853 52.632C52.7853 52.632 48.1139 53.3872 48.4476 60.9386C48.4476 60.9386 42.4414 67.735 44.1098 70.0004C45.7782 72.2658 49.4486 76.4192 50.7833 75.2864C52.118 74.1537 56.122 65.4695 56.122 65.4695C56.122 65.4695 65.4649 69.2453 67.1333 67.3574C68.8016 65.4695 70.47 60.9386 70.47 60.9386L62.1282 56.0302L52.7853 52.632Z" fill="#2F2E41"/>
<path d="M65.7986 31.1104C68.01 31.1104 69.8027 29.0818 69.8027 26.5795C69.8027 24.0771 68.01 22.0486 65.7986 22.0486C63.5872 22.0486 61.7945 24.0771 61.7945 26.5795C61.7945 29.0818 63.5872 31.1104 65.7986 31.1104Z" fill="#FFB8B8"/>
<path d="M62.7955 26.957C62.7955 26.957 60.4598 31.1103 59.7925 31.4879C59.1251 31.8655 64.4639 35.6412 64.4639 35.6412C64.4639 35.6412 64.4639 30.7328 66.1323 29.6L62.7955 26.957Z" fill="#FFB8B8"/>
<path d="M62.4618 31.1104C62.4618 31.1104 57.1231 29.2225 56.1221 32.2431C55.121 35.2637 52.7853 40.9273 53.119 44.703C53.4527 48.4788 54.12 47.7236 53.119 48.8563C52.118 49.9891 51.4506 49.2339 51.7843 50.7442C52.118 52.2545 52.4517 52.2545 52.118 53.0097C51.7843 53.7648 56.1221 56.4078 59.7925 56.7854L63.4629 57.163C63.4629 57.163 63.4629 50.3666 64.1302 48.8563C64.7976 47.3461 66.1323 44.3255 66.1323 43.1927V40.1957C66.1323 38.2008 65.6722 36.2405 64.7976 34.5085V34.5085C64.7976 34.5085 62.7955 31.1104 62.4618 31.1104Z" fill="#D62828"/>
<path d="M58.4577 32.6207C58.4577 32.6207 46.1118 33.7534 44.7771 37.5291C43.4424 41.3049 42.7751 48.8563 44.1098 48.8563C45.4445 48.8563 47.1128 49.6115 47.4465 48.8563C47.7802 48.1012 49.1149 40.5497 49.4486 40.5497C49.7822 40.5497 59.7924 39.417 59.7924 39.417C59.7924 39.417 64.1302 33.3758 58.4577 32.6207Z" fill="#D62828"/>
<path d="M65.9594 25.4562C65.9594 25.4562 67.022 23.3667 68.3502 25.1816C69.6784 26.9965 71.8391 23.6613 71.5074 22.9496C71.1757 22.238 70.0044 22.9816 67.997 22.2391C65.9896 21.4966 62.1228 19.9838 61.4751 24.9184C60.8275 29.8529 62.3699 29.3356 62.3699 29.3356C62.3699 29.3356 63.0769 24.9631 63.7159 26.219L64.3548 27.475L64.9091 27.6294L65.9594 25.4562Z" fill="#2F2E41"/>
<path opacity="0.3" d="M30.8964 73.6795C30.8964 69.4646 28.5902 66.0477 25.7454 66.0477C23.9573 66.0477 22.3825 67.3981 21.4589 69.4474C21.1418 69.3263 20.8093 69.2645 20.4746 69.2643C19.6089 69.2808 18.7824 69.6756 18.1681 70.366C17.3355 67.8107 15.5701 66.0477 13.5267 66.0477C11.6161 66.0477 9.94977 67.5901 9.06053 69.8791C8.5389 69.4829 7.92581 69.2691 7.29759 69.2643C5.11437 69.2643 3.3445 71.8865 3.3445 75.1212C3.33811 76.2122 3.55108 77.2907 3.9673 78.2749H29.8575C30.5518 76.8717 30.9099 75.2875 30.8964 73.6795V73.6795Z" fill="#FF931F"/>
</g>
<defs>
<clipPath id="clip0">
<rect width="172" height="101" fill="white"/>
</clipPath>
</defs>
</svg>
