<svg width="208" height="101" viewBox="0 0 208 101" fill="none" xmlns="http://www.w3.org/2000/svg">
<path d="M92.4448 93.3032C92.4448 87.1355 89.3013 82.1356 85.4236 82.1356C82.9863 82.1356 80.8398 84.1116 79.5808 87.1104C79.1555 86.9346 78.6996 86.8435 78.239 86.8424C77.0653 86.8424 75.9801 87.4411 75.0951 88.4545C73.9603 84.7154 71.5538 82.1356 68.7685 82.1356C66.1642 82.1356 63.8928 84.3925 62.6807 87.742C62.0073 87.1762 61.1587 86.8585 60.2777 86.8424C57.3017 86.8424 54.8893 90.6795 54.8893 95.4128C54.8769 96.9907 55.165 98.5566 55.7382 100.028H91.0288C91.9173 98.157 92.4448 95.8283 92.4448 93.3032Z" fill="#FF931F"/>
<path opacity="0.3" d="M179.496 94.9318C179.496 90.4473 176.707 86.8119 173.267 86.8119C171.105 86.8119 169.201 88.2486 168.084 90.4291C167.7 90.3002 167.298 90.2344 166.893 90.2342C165.846 90.2518 164.847 90.6718 164.104 91.4064C163.097 88.6876 160.962 86.8119 158.491 86.8119C156.181 86.8119 154.166 88.4529 153.09 90.8883C152.459 90.4668 151.718 90.2393 150.958 90.2342C148.318 90.2342 146.178 93.0241 146.178 96.4658C146.17 97.6266 146.428 98.774 146.931 99.8212H178.24C179.08 98.3283 179.513 96.6428 179.496 94.9318V94.9318Z" fill="#FF931F"/>
<path d="M192.207 100.205H0V99.8212H192.015L192.207 100.205Z" fill="#2F2E41"/>
<path d="M125.437 31.3222C128.7 31.3222 131.345 28.6889 131.345 25.4407C131.345 22.1924 128.7 19.5591 125.437 19.5591C122.175 19.5591 119.53 22.1924 119.53 25.4407C119.53 28.6889 122.175 31.3222 125.437 31.3222Z" fill="#2F2E41"/>
<path d="M123.549 29.794C123.549 29.794 123.855 35.2724 123.243 35.2724C122.632 35.2724 127.064 37.8594 127.064 37.8594L129.816 36.3377V34.5115C129.816 34.5115 126.147 34.055 127.676 30.0984C129.204 26.1417 123.549 29.794 123.549 29.794Z" fill="#9F616A"/>
<path d="M110.709 89.9044L110.25 94.4698L111.779 94.9263L113.002 93.7089L113.46 89.9044H110.709Z" fill="#9F616A"/>
<path d="M132.72 92.4915L133.484 95.3827L135.624 96.7523L137.917 95.535L135.319 91.2739L132.72 92.4915Z" fill="#9F616A"/>
<path d="M125.001 32.1528C127.449 32.1528 129.434 30.1769 129.434 27.7396C129.434 25.3023 127.449 23.3264 125.001 23.3264C122.553 23.3264 120.568 25.3023 120.568 27.7396C120.568 30.1769 122.553 32.1528 125.001 32.1528Z" fill="#9F616A"/>
<path d="M122.326 44.2509L121.256 43.7944C121.256 43.7944 119.422 42.7292 119.269 40.5987C119.116 38.4682 120.797 35.729 120.797 35.729L123.243 34.9681L126.117 37.2965L126.147 41.0552L122.326 44.2509Z" fill="#9F616A"/>
<path d="M121.256 36.0333L120.645 35.729C120.645 35.729 117.587 35.5768 117.282 39.2291C116.976 42.8814 115.906 48.9685 115.906 48.9685C115.906 48.9685 113.46 53.2295 113.613 57.7948L112.39 61.7515C112.39 61.7515 110.709 67.5342 112.696 67.5342C114.683 67.5342 114.53 61.2949 114.53 61.2949C114.53 61.2949 118.199 52.4686 118.505 50.9468C118.81 49.425 121.409 42.2727 120.645 40.2943C119.88 38.316 121.256 36.0333 121.256 36.0333Z" fill="#9F616A"/>
<path d="M123.549 45.6205V47.2945C123.549 47.2945 124.619 48.5119 124.16 49.2728C123.702 50.0337 123.243 51.5555 123.243 51.5555L125.383 54.9034L132.567 55.5121L133.996 45.9827L123.549 45.6205Z" fill="#9F616A"/>
<path d="M130.274 34.9681L131.497 34.3594C131.497 34.3594 134.096 32.5332 136.236 32.2289L142.809 27.8157L147.088 17.6197C147.088 17.6197 146.936 12.1413 148.158 12.75C149.381 13.3587 149.228 18.0763 149.228 18.0763C149.228 18.0763 146.936 27.5113 144.949 30.0984C142.961 32.6854 135.777 36.9464 135.777 36.9464C135.777 36.9464 133.79 39.229 133.943 40.2943C134.096 41.3596 130.274 34.9681 130.274 34.9681Z" fill="#9F616A"/>
<path d="M124.619 51.5555C124.619 51.5555 122.937 50.4903 121.867 52.3164C120.797 54.1425 118.81 54.5991 117.588 60.0775C116.365 65.5559 113.46 74.2301 112.696 74.8388C111.932 75.4475 108.722 81.839 110.556 90.8175H113.613L116.212 77.8823C116.212 77.8823 124.619 67.5342 125.23 63.2732L127.982 79.2519C127.982 79.2519 128.135 85.339 130.427 88.2304L132.873 94.0132L136.083 92.4914L132.414 77.8823C132.414 77.8823 134.249 63.121 133.026 59.0122L132.85 53.6255C132.85 53.6255 127.829 53.8382 124.619 51.5555Z" fill="#2F2E41"/>
<path d="M111.779 93.7089H109.945C109.639 93.7089 107.193 95.6872 108.263 96.7524C109.333 97.8177 111.015 99.796 111.015 99.796C111.015 99.796 116.976 100.551 117.129 99.4856C117.282 98.4203 114.53 96.1437 114.53 96.1437L113.766 93.7089C113.766 93.7089 112.238 92.0349 111.779 93.7089Z" fill="#2F2E41"/>
<path d="M136.083 95.2307C136.083 95.2307 133.484 95.0785 133.026 94.9264C132.567 94.7742 131.65 98.883 133.026 99.1874C134.402 99.4917 140.057 99.9483 140.057 99.9483C140.057 99.9483 144.49 99.7961 144.184 98.5787C143.879 97.3612 137.917 94.9264 137.917 94.9264C137.917 94.9264 137.153 93.4046 136.083 95.2307Z" fill="#2F2E41"/>
<path d="M124.007 34.8159L123.243 34.3594L122.326 35.1202C122.326 35.1202 125.077 36.9464 124.466 38.6203C123.855 40.2943 121.256 43.7944 121.256 43.7944C121.256 43.7944 123.549 46.3814 123.549 47.2945C123.549 47.2945 129.51 45.164 133.943 47.2945C133.943 47.2945 133.943 44.2509 134.554 43.6422C135.166 43.0335 135.472 40.903 133.943 39.0769C132.866 37.7332 131.895 36.3086 131.039 34.8159L129.51 33.9028L128.723 34.1515C128.723 34.1515 130.274 35.8811 128.746 36.0333C127.217 36.1855 124.772 35.729 124.007 34.8159Z" fill="#D62828"/>
<path d="M129.755 15.4132C129.236 15.9903 128.524 16.3612 127.752 16.4577C126.417 16.6477 127.466 18.7367 127.466 18.7367C127.466 18.7367 127.084 17.9771 127.847 17.3124C128.61 16.6477 129.755 16.2678 129.755 15.4132Z" fill="#2F2E41"/>
<path d="M127.18 20.8126C128.09 20.8126 128.827 20.0787 128.827 19.1735C128.827 18.2682 128.09 17.5344 127.18 17.5344C126.271 17.5344 125.534 18.2682 125.534 19.1735C125.534 20.0787 126.271 20.8126 127.18 20.8126Z" fill="#2F2E41"/>
<path d="M129.103 20.7875C127.831 20.1261 125.643 19.6059 124.48 19.643L124.774 18.5237C125.803 19.2198 127.98 19.7497 129.397 19.6681L129.103 20.7875Z" fill="#D62828"/>
<path d="M126.475 20.886C126.475 20.886 124.471 23.4515 120.462 24.0216C116.453 24.5918 119.603 30.8631 119.603 30.8631C119.603 30.8631 118.458 28.5826 120.748 26.5872C123.039 24.5918 126.475 23.4515 126.475 20.886Z" fill="#2F2E41"/>
<path d="M126.628 20.7338C126.628 20.7338 127.773 24.7247 129.491 25.2948C131.209 25.8649 130.35 31.8512 127.487 32.4213C127.487 32.4213 129.92 29.1431 128.489 26.5776C127.057 24.012 126.198 22.0166 126.628 20.7338Z" fill="#2F2E41"/>
<path d="M153.585 14.0436H143.038V15.261H153.585V14.0436Z" fill="#2F2E41"/>
<path d="M153.585 18.3046C154.091 18.3046 154.502 16.6694 154.502 14.6523C154.502 12.6352 154.091 11 153.585 11C153.078 11 152.668 12.6352 152.668 14.6523C152.668 16.6694 153.078 18.3046 153.585 18.3046Z" fill="#2F2E41"/>
<path d="M143.038 18.3046C143.544 18.3046 143.955 16.6694 143.955 14.6523C143.955 12.6352 143.544 11 143.038 11C142.531 11 142.121 12.6352 142.121 14.6523C142.121 16.6694 142.531 18.3046 143.038 18.3046Z" fill="#2F2E41"/>
<path d="M158.935 95.9185H148.388V97.1359H158.935V95.9185Z" fill="#2F2E41"/>
<path d="M158.935 100.179C159.441 100.179 159.852 98.5442 159.852 96.5271C159.852 94.51 159.441 92.8748 158.935 92.8748C158.428 92.8748 158.018 94.51 158.018 96.5271C158.018 98.5442 158.428 100.179 158.935 100.179Z" fill="#2F2E41"/>
<path d="M148.388 100.179C148.894 100.179 149.305 98.5442 149.305 96.5271C149.305 94.51 148.894 92.8748 148.388 92.8748C147.881 92.8748 147.471 94.51 147.471 96.5271C147.471 98.5442 147.881 100.179 148.388 100.179Z" fill="#2F2E41"/>
<path opacity="0.3" d="M67.0224 94.8573C67.0224 90.3728 64.2335 86.7374 60.7933 86.7374C58.631 86.7374 56.7266 88.1741 55.6097 90.3546C55.2262 90.2257 54.8241 90.1599 54.4193 90.1597C53.3724 90.1773 52.373 90.5974 51.6301 91.3319C50.6233 88.6132 48.4883 86.7374 46.0172 86.7374C43.7068 86.7374 41.6917 88.3784 40.6163 90.8139C39.9855 90.3923 39.2441 90.1648 38.4844 90.1597C35.8442 90.1597 33.7039 92.9497 33.7039 96.3913C33.6962 97.5521 33.9537 98.6996 34.457 99.7467H65.7661C66.6057 98.2538 67.0388 96.5683 67.0224 94.8573V94.8573Z" fill="#FF931F"/>
</svg>
