<svg width="161" height="101" viewBox="0 0 161 101" fill="none" xmlns="http://www.w3.org/2000/svg">
<g clip-path="url(#clip0)">
<path d="M85.1429 106.211C127.038 106.211 161 101.771 161 96.2944C161 90.8177 127.038 86.3779 85.1429 86.3779C43.2482 86.3779 9.28583 90.8177 9.28583 96.2944C9.28583 101.771 43.2482 106.211 85.1429 106.211Z" fill="#F2F2F2"/>
<path d="M108.438 73.9902C108.438 74.305 108.429 74.6198 108.413 74.922C108.413 74.9677 108.413 75.0118 108.413 75.0574C108.332 76.3872 108.099 77.7023 107.721 78.9752C107.71 79.0145 107.696 79.057 107.684 79.0964C107.296 80.3634 106.775 81.5823 106.13 82.7309L106.065 82.8442C105.373 84.0548 104.561 85.1869 103.642 86.2221L103.548 86.326C102.516 87.4773 101.372 88.5153 100.136 89.4237C100.093 89.4568 100.049 89.4898 100.007 89.5197C98.7115 90.4621 97.3337 91.2758 95.8918 91.95C95.6934 92.0429 95.4935 92.1342 95.286 92.2239L95.1042 92.3026C92.8979 93.2464 90.5862 93.8984 88.2235 94.2434L87.9342 94.2843C86.6076 94.4664 85.2709 94.5573 83.9328 94.5567C74.0154 94.5567 65.4732 89.611 61.6186 82.4948C61.3591 82.0194 61.1224 81.5346 60.9083 81.0403L60.8205 80.8373C60.0022 78.9027 59.5364 76.8271 59.4468 74.7158C59.4468 74.6639 59.4468 74.6135 59.4468 74.5584C59.4468 74.3695 59.4392 74.1791 59.4392 73.9886C59.4386 72.517 59.6239 71.0516 59.9905 69.6301C60.0011 69.586 60.0117 69.5435 60.0238 69.501C60.409 68.0526 60.9688 66.6607 61.6898 65.3581C61.7095 65.3219 61.7292 65.2842 61.7504 65.248C62.4609 63.9865 63.302 62.8094 64.2585 61.7378C64.2836 61.7054 64.3104 61.6744 64.3388 61.645L64.3509 61.6324C64.4706 61.5002 64.5917 61.3664 64.7159 61.2357L64.9022 61.0405C65.0249 60.913 65.1506 60.7887 65.2763 60.6628H65.2839C65.5868 60.3668 65.8953 60.0799 66.2093 59.8018C66.6455 59.4177 67.1014 59.0478 67.5724 58.6921L67.6739 58.6134C68.9245 57.6864 70.2537 56.8798 71.6451 56.2035C71.686 56.183 71.7284 56.161 71.7693 56.1437C73.337 55.3913 74.9693 54.7937 76.6447 54.3587C76.6977 54.343 76.7492 54.3304 76.7961 54.3178C78.8712 53.7915 80.9947 53.4986 83.13 53.4442C83.2012 53.4442 83.2724 53.4442 83.3451 53.4442C83.539 53.4442 83.7344 53.4363 83.9297 53.4363C93.7578 53.4363 102.235 58.2954 106.139 65.3046C106.174 65.3676 106.207 65.4305 106.242 65.4919L106.394 65.7674C106.477 65.9248 106.556 66.0822 106.635 66.249C106.671 66.3246 106.706 66.3986 106.741 66.4741C106.762 66.5182 106.785 66.5623 106.804 66.6079C107.376 67.8428 107.804 69.1436 108.081 70.4832C108.093 70.5352 108.102 70.5855 108.113 70.6406C108.329 71.7431 108.438 72.8652 108.438 73.9902V73.9902Z" fill="#D62828"/>
<g opacity="0.2">
<path opacity="0.2" d="M106.247 65.4778C105.127 65.0371 104.016 64.5785 102.915 64.1021C96.0407 61.1447 89.4252 57.5757 83.1422 53.4348H83.3572C90.5605 58.16 98.1957 62.1333 106.151 65.2968C106.18 65.3582 106.214 65.4164 106.247 65.4778Z" fill="#F2F2F2"/>
</g>
<g opacity="0.2">
<path opacity="0.2" d="M108.111 70.6219C105.385 69.6774 102.688 68.6281 100.019 67.4738C93.0742 64.488 86.3933 60.8782 80.0524 56.6853C78.8569 55.8951 77.721 55.116 76.6447 54.3478L76.7961 54.3085C77.8472 55.0546 78.9579 55.8143 80.1282 56.5877C88.8755 62.3642 98.2601 67.0254 108.079 70.4707C108.092 70.5211 108.101 70.5715 108.111 70.6219Z" fill="#F2F2F2"/>
</g>
<g opacity="0.2">
<path opacity="0.2" d="M108.413 74.9221C108.413 74.9678 108.413 75.0134 108.413 75.0575C104.607 73.8518 100.848 72.4519 97.1368 70.8579C90.1907 67.8698 83.5088 64.2573 77.1672 60.0616C75.1604 58.7346 73.3187 57.4345 71.6496 56.1941L71.7738 56.1328C73.4292 57.3621 75.2573 58.6512 77.2414 59.964C86.9428 66.3736 97.4264 71.4044 108.413 74.9221V74.9221Z" fill="#F2F2F2"/>
</g>
<g opacity="0.2">
<path opacity="0.2" d="M107.713 78.9737C107.702 79.0162 107.689 79.0571 107.677 79.098C103.112 77.7441 98.6257 76.1202 94.2394 74.2343C87.2941 71.2471 80.6132 67.6351 74.2729 63.4395C71.7799 61.7915 69.5429 60.1828 67.5724 58.6827L67.6739 58.6056C69.6428 60.0994 71.8662 61.7002 74.3471 63.3419C84.6944 70.1803 95.9303 75.4443 107.713 78.9737V78.9737Z" fill="#F2F2F2"/>
</g>
<g opacity="0.2">
<path opacity="0.2" d="M106.123 82.7309L106.058 82.8442C101.055 81.421 96.1424 79.6735 91.3496 77.6121C84.4043 74.624 77.7229 71.0121 71.3816 66.8173C68.7099 65.0497 66.329 63.3261 64.2631 61.7347C64.2873 61.7048 64.3146 61.6733 64.3434 61.6434C66.4123 63.2332 68.7917 64.9489 71.4618 66.7197C79.3936 71.9692 91.2739 78.4999 106.123 82.7309Z" fill="#F2F2F2"/>
</g>
<g opacity="0.2">
<path opacity="0.2" d="M103.636 86.2222L103.542 86.3261C98.4096 84.8853 93.3719 83.1029 88.4598 80.99C81.5143 78.0023 74.8329 74.3903 68.4917 70.1952C65.9594 68.5173 63.6875 66.8819 61.6898 65.3582C61.7095 65.322 61.7292 65.2858 61.7504 65.2496C63.7481 66.7748 66.026 68.415 68.566 70.0961C76.575 75.3959 88.5991 81.9959 103.636 86.2222Z" fill="#F2F2F2"/>
</g>
<g opacity="0.2">
<path opacity="0.2" d="M100.13 89.4238C100.087 89.4568 100.043 89.4899 100.001 89.5198C95.0937 88.1108 90.2744 86.3903 85.57 84.368C78.6244 81.3805 71.943 77.7685 65.602 73.5732C63.5573 72.2195 61.6808 70.8973 59.986 69.6302C59.9966 69.5877 60.0072 69.5452 60.0193 69.5027C61.7262 70.7729 63.6149 72.1109 65.6777 73.4756C73.5762 78.7014 85.3807 85.1912 100.13 89.4238Z" fill="#F2F2F2"/>
</g>
<g opacity="0.2">
<path opacity="0.2" d="M95.2844 92.224L95.1027 92.3027C90.8883 91.0128 86.7427 89.4917 82.6832 87.7458C78.7454 86.0537 74.8666 84.1444 71.0832 82.0399C68.2358 80.4533 65.4465 78.757 62.7152 76.951C61.5732 76.1955 60.4858 75.4504 59.4528 74.7159C59.4528 74.6639 59.4528 74.6136 59.4528 74.5585C60.511 75.3088 61.6262 76.0727 62.7985 76.8503C65.2869 78.4983 68.1646 80.2707 71.3997 82.0604C79.011 86.2769 87.0133 89.6822 95.2844 92.224V92.224Z" fill="#F2F2F2"/>
</g>
<g opacity="0.2">
<path opacity="0.2" d="M88.2235 94.2435L87.9342 94.2845C85.1909 93.3306 82.4747 92.2765 79.7859 91.1222C73.9676 88.6191 68.3339 85.6756 62.9303 82.3154C62.2558 81.8957 61.5843 81.4707 60.9159 81.0405L60.828 80.8374C61.5641 81.3138 62.3305 81.7991 63.1271 82.2934C71.0572 87.1983 79.4708 91.2047 88.2235 94.2435V94.2435Z" fill="#F2F2F2"/>
</g>
<path opacity="0.1" d="M95.8857 91.9501C95.6873 92.043 95.4874 92.1343 95.2799 92.224L95.0981 92.3027C92.8937 93.246 90.5841 93.898 88.2235 94.2435L87.9342 94.2844C86.6076 94.4665 85.2709 94.5574 83.9327 94.5567C74.0154 94.5567 65.4732 89.6111 61.6187 82.4948C62.0518 82.4256 62.4865 82.3673 62.9227 82.3154L63.1196 82.2934C64.2919 82.1643 65.4732 82.0919 66.6516 82.0399C68.1257 81.9597 69.6029 81.9597 71.0771 82.0399C71.1801 82.0399 71.2831 82.0525 71.38 82.062C72.3845 82.1359 73.3824 82.2874 74.3652 82.5153C77.3565 83.2205 80.0979 84.752 82.815 86.23C87.0118 88.5061 91.3026 90.7255 95.8857 91.9501Z" fill="black"/>
<path opacity="0.1" d="M106.145 65.2905C102.241 58.2813 93.7638 53.4222 83.9358 53.4222C83.7404 53.4222 83.545 53.4222 83.3512 53.4222H83.1361C81.0007 53.4758 78.8771 53.7687 76.8022 54.2958L76.6507 54.3352C74.9758 54.7716 73.3436 55.3692 71.7753 56.1201L71.6511 56.1815C70.2594 56.8578 68.9301 57.6649 67.6799 58.593L67.5785 58.6701C66.4147 59.5419 65.3358 60.5299 64.357 61.6199C64.2298 62.9625 64.0117 64.2768 63.4483 65.4873C63.0514 66.3373 62.641 67.1558 63.2029 68.0058C63.58 68.5771 64.3964 69.3012 65.0916 69.3295C67.0014 69.4098 68.0631 66.756 68.9628 65.4338C70.341 63.4095 72.3842 62.0039 74.3804 60.6455C75.2331 60.0647 76.0949 59.4792 77.0566 59.1313C77.8677 58.8585 78.7113 58.7044 79.5632 58.6732C81.8851 58.5379 84.2584 58.9046 86.3788 59.9041C88.8021 61.0453 90.9528 63.0129 93.5972 63.2852C94.7952 63.408 96.0205 63.1671 97.1943 63.452C99.2799 63.9605 100.726 66.0051 102.756 66.7198C104.069 67.1825 105.482 67.0346 106.818 66.5812C106.645 66.2035 106.46 65.8315 106.262 65.4652C106.214 65.4164 106.18 65.3582 106.145 65.2905Z" fill="black"/>
<path d="M46.7456 73.1781C46.0277 73.9651 45.2219 74.6561 44.4813 75.4195C41.7384 78.2528 39.98 81.9345 37.5143 85.0212C36.8494 85.8538 36.127 86.6535 35.6317 87.6042C35.1365 88.5549 34.8881 89.7118 35.2425 90.7287C35.5454 91.6007 36.2436 92.2539 36.9221 92.8568C37.3406 93.256 37.8003 93.606 38.2928 93.9004C39.4318 94.53 40.7797 94.5646 42.0701 94.5851C42.782 94.5961 43.6498 94.5127 43.9543 93.8437C42.8008 93.2724 41.7383 92.5207 40.804 91.6148C40.2693 91.0954 39.765 90.5004 39.5484 89.7748C39.1788 88.5376 39.7256 87.1902 40.4995 86.1749C41.2735 85.1597 42.2716 84.3459 43.0273 83.3165C43.7831 82.2871 44.2708 81.105 45.1811 80.2644C45.8111 79.6836 46.5941 79.32 47.3014 78.8368C48.3344 78.13 49.1871 77.1793 50.0277 76.238L54.4956 71.2436C54.6034 71.148 54.6775 71.0178 54.7062 70.8737C54.7243 70.6863 54.5911 70.5226 54.4638 70.3873C53.4915 69.35 51.6589 67.5288 50.323 68.8951C49.0356 70.211 47.9921 71.8118 46.7456 73.1781Z" fill="#A0616A"/>
<path opacity="0.1" d="M46.7456 73.1781C46.0277 73.9651 45.2219 74.6561 44.4813 75.4195C41.7384 78.2528 39.98 81.9345 37.5143 85.0212C36.8494 85.8538 36.127 86.6535 35.6317 87.6042C35.1365 88.5549 34.8881 89.7118 35.2425 90.7287C35.5454 91.6007 36.2436 92.2539 36.9221 92.8568C37.3406 93.256 37.8003 93.606 38.2928 93.9004C39.4318 94.53 40.7797 94.5646 42.0701 94.5851C42.782 94.5961 43.6498 94.5127 43.9543 93.8437C42.8008 93.2724 41.7383 92.5207 40.804 91.6148C40.2693 91.0954 39.765 90.5004 39.5484 89.7748C39.1788 88.5376 39.7256 87.1902 40.4995 86.1749C41.2735 85.1597 42.2716 84.3459 43.0273 83.3165C43.7831 82.2871 44.2708 81.105 45.1811 80.2644C45.8111 79.6836 46.5941 79.32 47.3014 78.8368C48.3344 78.13 49.1871 77.1793 50.0277 76.238L54.4956 71.2436C54.6034 71.148 54.6775 71.0178 54.7062 70.8737C54.7243 70.6863 54.5911 70.5226 54.4638 70.3873C53.4915 69.35 51.6589 67.5288 50.323 68.8951C49.0356 70.211 47.9921 71.8118 46.7456 73.1781Z" fill="black"/>
<path d="M53.131 64.099C54.0322 63.9007 55.003 64.3997 55.8739 64.0896C56.3676 63.9133 56.7448 63.504 57.1007 63.1074L58.5547 61.4971C58.9651 61.0422 59.3831 60.5779 59.6361 60.0112C59.8602 59.5107 59.939 58.9582 60.048 58.4167C60.3146 57.0316 60.7705 55.6118 61.7716 54.6579C63.0196 53.4648 64.9431 53.2413 66.5455 53.8111C68.1479 54.3809 69.452 55.6527 70.4107 57.1071C69.5535 58.1775 68.5932 59.166 67.7375 60.2363C67.464 60.6111 67.1424 60.9453 66.7818 61.2295C66.3828 61.4825 65.9535 61.6799 65.505 61.8167C63.9647 62.3833 62.3244 63.2034 61.6898 64.7696C61.4687 65.3142 61.3869 65.9076 61.2658 66.4853C61.0325 67.5776 60.6069 68.659 59.8375 69.4413C59.0681 70.2236 57.9064 70.6518 56.8811 70.3133C55.7467 69.9387 55.0515 68.7834 54.4669 67.7067C53.8453 66.5829 53.3947 65.366 53.131 64.099V64.099Z" fill="#A0616A"/>
<path opacity="0.1" d="M53.131 64.099C54.0322 63.9007 55.003 64.3997 55.8739 64.0896C56.3676 63.9133 56.7448 63.504 57.1007 63.1074L58.5547 61.4971C58.9651 61.0422 59.3831 60.5779 59.6361 60.0112C59.8602 59.5107 59.939 58.9582 60.048 58.4167C60.3146 57.0316 60.7705 55.6118 61.7716 54.6579C63.0196 53.4648 64.9431 53.2413 66.5455 53.8111C68.1479 54.3809 69.452 55.6527 70.4107 57.1071C69.5535 58.1775 68.5932 59.166 67.7375 60.2363C67.464 60.6111 67.1424 60.9453 66.7818 61.2295C66.3828 61.4825 65.9535 61.6799 65.505 61.8167C63.9647 62.3833 62.3244 63.2034 61.6898 64.7696C61.4687 65.3142 61.3869 65.9076 61.2658 66.4853C61.0325 67.5776 60.6069 68.659 59.8375 69.4413C59.0681 70.2236 57.9064 70.6518 56.8811 70.3133C55.7467 69.9387 55.0515 68.7834 54.4669 67.7067C53.8453 66.5829 53.3947 65.366 53.131 64.099V64.099Z" fill="black"/>
<path d="M92.587 57.8469C98.2787 59.964 103.937 62.4714 108.641 66.4254C110.795 68.2371 112.714 70.3275 114.762 72.2683C115.834 73.2851 116.941 74.2594 118.048 75.2353L125.907 82.1611C126.88 83.019 127.857 83.8784 128.937 84.5962C131.477 86.293 134.506 87.1556 136.993 88.9799C136.988 89.9219 137.137 90.858 137.432 91.7486C137.544 92.0765 137.757 92.357 138.038 92.5472C138.319 92.7374 138.652 92.8268 138.986 92.8017C142.902 92.5671 146.874 94.5426 150.819 94.0452C150.933 94.0322 151.042 93.9921 151.139 93.928C151.235 93.8638 151.316 93.7773 151.375 93.6753C151.64 93.1936 151.187 92.7434 150.79 92.4554L145.433 88.558C144.55 87.9158 143.667 87.2736 142.768 86.6582C139.514 84.4356 136.04 82.5483 133.024 79.9968C132.381 79.4522 131.761 78.8792 131.14 78.3047C127.857 75.2731 124.572 72.2384 121.459 69.0179C116.935 64.3351 112.657 59.1108 108.172 54.3871C107.746 53.916 107.286 53.4787 106.797 53.0791C106.318 52.7249 105.817 52.4056 105.296 52.1237L99.6025 48.8733C98.7407 48.3806 97.785 47.8722 96.8233 48.0658C96.5849 48.0048 96.3358 48.0059 96.098 48.0691C95.8602 48.1323 95.6411 48.2555 95.4601 48.4278C95.0936 48.7788 94.8543 49.2432 94.612 49.6981C94.2956 50.2489 94.0463 50.8384 93.8698 51.4531C93.6669 52.2889 93.7335 53.1846 93.4988 54.0062C93.3473 54.5493 93.0656 55.0451 92.8748 55.5803C92.6245 56.3059 92.5264 57.0787 92.587 57.8469V57.8469Z" fill="#A0616A"/>
<path opacity="0.1" d="M92.587 57.8469C98.2787 59.964 103.937 62.4714 108.641 66.4254C110.795 68.2371 112.714 70.3275 114.762 72.2683C115.834 73.2851 116.941 74.2594 118.048 75.2353L125.907 82.1611C126.88 83.019 127.857 83.8784 128.937 84.5962C131.477 86.293 134.506 87.1556 136.993 88.9799C136.988 89.9219 137.137 90.858 137.432 91.7486C137.544 92.0765 137.757 92.357 138.038 92.5472C138.319 92.7374 138.652 92.8268 138.986 92.8017C142.902 92.5671 146.874 94.5426 150.819 94.0452C150.933 94.0322 151.042 93.9921 151.139 93.928C151.235 93.8638 151.316 93.7773 151.375 93.6753C151.64 93.1936 151.187 92.7434 150.79 92.4554L145.433 88.558C144.55 87.9158 143.667 87.2736 142.768 86.6582C139.514 84.4356 136.04 82.5483 133.024 79.9968C132.381 79.4522 131.761 78.8792 131.14 78.3047C127.857 75.2731 124.572 72.2384 121.459 69.0179C116.935 64.3351 112.657 59.1108 108.172 54.3871C107.746 53.916 107.286 53.4787 106.797 53.0791C106.318 52.7249 105.817 52.4056 105.296 52.1237L99.6025 48.8733C98.7407 48.3806 97.785 47.8722 96.8233 48.0658C96.5849 48.0048 96.3358 48.0059 96.098 48.0691C95.8602 48.1323 95.6411 48.2555 95.4601 48.4278C95.0936 48.7788 94.8543 49.2432 94.612 49.6981C94.2956 50.2489 94.0463 50.8384 93.8698 51.4531C93.6669 52.2889 93.7335 53.1846 93.4988 54.0062C93.3473 54.5493 93.0656 55.0451 92.8748 55.5803C92.6245 56.3059 92.5264 57.0787 92.587 57.8469V57.8469Z" fill="black"/>
<path d="M53.9686 76.3404C57.5077 76.3404 60.3767 73.3587 60.3767 69.6806C60.3767 66.0025 57.5077 63.0208 53.9686 63.0208C50.4294 63.0208 47.5604 66.0025 47.5604 69.6806C47.5604 73.3587 50.4294 76.3404 53.9686 76.3404Z" fill="#A0616A"/>
<path d="M92.9656 45.6323C93.8607 45.648 94.877 45.7204 95.4404 46.4429C96.0039 47.1654 95.8766 48.1555 95.7343 49.0464C95.289 51.8624 94.8255 54.7287 93.5866 57.2755C93.4998 57.5053 93.3456 57.7008 93.1459 57.8343C92.7899 58.0247 92.3674 57.8012 92.0266 57.5824C89.5442 55.9801 87.0619 54.2549 84.2327 53.4899C84.062 53.4671 83.9053 53.3804 83.7919 53.2459C83.7531 53.1615 83.7309 53.0698 83.7265 52.9763C83.722 52.8828 83.7355 52.7893 83.7662 52.7013C84.0479 51.3964 84.4038 50.1073 84.6249 48.7883C84.7582 48.0012 84.5113 46.1124 85.1823 45.6244C85.8926 45.105 87.9388 45.5441 88.7794 45.5583L92.9656 45.6323Z" fill="#A0616A"/>
<path d="M95.9796 58.6308C101.671 60.7479 107.33 63.2553 112.026 67.2077C114.18 69.021 116.099 71.1114 118.147 73.0522C119.219 74.069 120.326 75.0433 121.433 76.0176L129.292 82.9434C130.265 83.7997 131.242 84.6607 132.322 85.3769C134.872 87.08 137.901 87.9395 140.379 89.7559C140.374 90.6985 140.523 91.6351 140.818 92.5262C140.931 92.854 141.144 93.1343 141.425 93.3245C141.705 93.5146 142.038 93.6041 142.372 93.5793C146.289 93.3432 150.26 95.3202 154.206 94.8228C154.32 94.8096 154.429 94.7692 154.525 94.7047C154.622 94.6403 154.703 94.5535 154.761 94.4513C155.026 93.9791 154.574 93.5195 154.177 93.2314L148.82 89.3356C147.937 88.6934 147.054 88.0512 146.154 87.4358C142.907 85.2132 139.433 83.3259 136.417 80.776C135.773 80.2314 135.154 79.6568 134.533 79.0839C131.249 76.0523 127.964 73.0175 124.85 69.797C120.328 65.1143 116.049 59.89 111.564 55.1584C111.136 54.6935 110.675 54.2621 110.185 53.8677C109.706 53.5145 109.204 53.1958 108.684 52.9138L102.991 49.6634C102.129 49.1708 101.173 48.6623 100.211 48.8559C99.9731 48.7943 99.724 48.795 99.4861 48.8579C99.2483 48.9208 99.0291 49.044 98.8482 49.2164C98.4817 49.5674 98.2424 50.0333 98 50.4882C97.6839 51.0386 97.4346 51.6276 97.2579 52.2417C97.055 53.0775 97.1216 53.9732 96.8868 54.7964C96.7354 55.3394 96.4537 55.8353 96.2628 56.3704C96.0149 57.0944 95.9184 57.865 95.9796 58.6308V58.6308Z" fill="#A0616A"/>
<path d="M97.8683 59.1187L98.0486 56.394C98.1 55.6322 98.1515 54.8609 98.3772 54.1353C98.6332 53.3121 99.0997 52.5801 99.5737 51.8687C99.8267 51.4538 100.132 51.0763 100.482 50.7464C100.999 50.2946 101.667 50.0491 102.148 49.5595C102.286 49.4195 102.415 49.2133 102.333 49.0322C102.295 48.9646 102.244 48.9066 102.182 48.8622C100.994 47.8501 99.5707 47.1922 98.1652 46.5453L95.5086 45.3238C94.3909 46.8978 93.2534 48.5207 92.6779 50.3875C92.591 50.7191 92.4822 51.0442 92.3523 51.3603C92.0115 52.0985 91.3648 52.6368 90.9543 53.3357C90.5681 53.9936 90.4076 54.7633 90.2546 55.5173C90.1637 55.9596 90.0759 56.4318 90.2288 56.8552C90.3985 57.3275 90.8347 57.6328 91.2315 57.9083C92.9899 59.1061 94.8468 60.3418 96.9444 60.5118C97.3291 60.5417 97.8411 60.7416 97.9637 60.3544C98.0501 60.0946 97.8486 59.4367 97.8683 59.1187Z" fill="#3F3D56"/>
<path d="M45.3749 66.7749C44.7115 67.6988 45.1568 69.0447 45.8444 69.9497C46.532 70.8548 47.4514 71.6135 47.8361 72.6949C48.7585 75.281 46.1852 77.8892 46.2731 80.6407C46.3518 83.093 48.4374 84.8701 50.2109 86.4992C53.9792 89.9621 57.1991 94.7882 56.7751 100.001C58.4893 99.4796 59.9702 98.3436 60.9553 96.7951C61.5306 98.1069 61.7735 99.5498 61.6611 100.987C65.611 98.1771 67.8602 92.9827 67.265 88.0481C66.9817 85.7122 66.1154 83.4346 66.2502 81.0861C66.3229 79.8127 66.6879 78.5802 66.9514 77.3336C67.2872 75.7263 67.4547 74.0861 67.4512 72.4414C67.4512 70.5652 67.1165 68.4812 65.6928 67.3274C64.4812 66.3467 62.8152 66.3137 61.2794 66.3216C59.6573 66.3326 58.0352 66.3404 56.4161 66.4459C54.7637 66.5529 53.0598 67.1196 51.4332 67.1621C49.6218 67.2093 47.0697 64.4138 45.3749 66.7749Z" fill="#3F3D56"/>
<path d="M69.5944 54.4548C68.5233 54.8221 67.5589 55.4648 66.7909 56.3232C66.3078 56.8678 65.9079 57.4896 65.4066 58.0169C64.8099 58.6465 64.0814 59.1187 63.3831 59.6224C62.0488 60.5826 60.7993 61.6608 59.5513 62.7374L53.4021 68.042C52.4404 68.8715 51.4786 69.7026 50.5714 70.5966C49.4521 71.6985 48.4192 72.901 47.2242 73.9163C46.5245 74.5113 45.7718 75.0417 45.1296 75.7044C44.5237 76.334 44.033 77.0597 43.5363 77.779C41.5125 80.6985 39.3384 83.5023 37.0236 86.1781C36.0407 87.3161 35.0244 88.4369 33.8294 89.3262C31.3516 91.182 29.4705 93.9602 27.2925 96.1874C27.1077 96.3763 26.9048 96.6455 27.0184 96.8895C27.0861 97.0063 27.1946 97.0915 27.3213 97.1271C28.9146 97.7442 30.2868 95.0573 31.9468 95.4382C32.7041 95.6113 33.169 96.3559 33.7113 96.9241C34.2535 97.4923 35.1834 97.911 35.7499 97.368C35.5558 95.7874 35.7534 94.1815 36.3239 92.7025C37.2523 90.3084 39.094 88.4211 41.0599 86.8408C43.0258 85.2604 45.1659 83.9131 47.0122 82.1832C50.1095 79.2822 52.3722 75.3251 56.0466 73.2772C57.4854 72.4745 59.0757 72.0054 60.51 71.1838C63.2862 69.5877 65.2279 66.7764 66.7455 63.8849C66.9242 63.4884 67.1658 63.1261 67.4603 62.813C67.7771 62.5538 68.1293 62.3453 68.5054 62.1944C70.4569 61.2584 72.2079 59.9251 73.6549 58.2735C73.2006 57.935 72.775 57.573 72.3221 57.233C71.9535 56.9794 71.6162 56.6797 71.318 56.3405C71.015 55.9691 70.8181 55.5236 70.5607 55.1175C70.3032 54.7114 70.0336 54.6012 69.5944 54.4548Z" fill="#A0616A"/>
<path d="M86.141 54.9412C85.7412 54.6075 85.7275 53.9968 85.7472 53.4569C85.8128 51.801 85.8775 50.1456 85.9411 48.4908C85.985 47.3244 86.0925 46.018 86.9392 45.253C84.4906 44.7419 82.0219 44.35 79.5329 44.0772C78.5454 43.9686 77.5443 43.8788 76.5598 44.0284C75.3739 44.2078 74.2622 44.7241 73.1687 45.2357C71.9571 45.8023 70.7379 46.3737 69.6519 47.1686C69.2338 47.5043 68.798 47.8154 68.3464 48.1004C67.5224 48.5726 66.5758 48.73 65.6883 49.0449C63.6375 49.7701 61.9228 51.268 60.8825 53.2428C59.8423 55.2176 59.5521 57.5259 60.0692 59.7122C60.3722 58.8984 60.5842 58.0468 60.9386 57.2551C61.293 56.4633 61.8155 55.7157 62.5592 55.3111C63.3346 54.8924 64.2707 54.8956 65.1143 55.1364C65.9579 55.3772 66.7167 55.8416 67.474 56.3106C69.1612 57.3731 70.8848 58.6135 71.686 60.485C73.352 59.1974 75.0559 57.9665 76.7249 56.6727C77.4489 56.1139 78.1835 55.5504 79.0225 55.212C80.1251 54.7665 81.3353 54.7398 82.5182 54.7161C83.701 54.6925 84.9839 54.6233 86.141 54.9412Z" fill="#FF6584"/>
<path d="M60.0632 59.5609L59.8618 62.465L60.5888 61.8417L60.2253 59.2729L60.0632 59.5609Z" fill="#FF6584"/>
<path opacity="0.03" d="M72.5039 34.5243C72.0775 34.44 71.6366 34.4899 71.2377 34.6675C70.999 34.7766 70.7412 34.8334 70.4804 34.8344C70.2167 34.8346 69.956 34.7767 69.7155 34.6644C69.4325 34.5357 69.126 34.4724 68.8172 34.4789C68.5083 34.4854 68.2046 34.5616 67.9268 34.7021C67.7681 34.7894 67.5914 34.8353 67.4119 34.8359C66.6864 34.8359 66.0836 34.0757 65.9579 33.0746C66.1025 32.9646 66.2254 32.8268 66.3199 32.6685C66.7455 31.9554 67.4043 31.499 68.1374 31.499C68.8704 31.499 69.5277 31.9507 69.9548 32.6543C70.0824 32.8681 70.261 33.044 70.4733 33.1648C70.6857 33.2856 70.9245 33.3473 71.1665 33.3437H71.1847C71.7602 33.3406 72.2615 33.8223 72.5039 34.5243Z" fill="black"/>
<path d="M19.6863 90.2549C19.6899 90.7936 19.6391 91.3312 19.5349 91.8589C19.5137 91.958 19.4925 92.0556 19.4713 92.1501C18.9063 94.5033 17.313 96.2253 15.4122 96.3354C15.3486 96.3354 15.285 96.3354 15.2184 96.3354C13.2085 96.3354 11.5092 94.5332 10.9473 92.0509C10.9321 91.9848 10.9185 91.9187 10.9034 91.8526C10.7966 91.3252 10.7433 90.7876 10.7443 90.2486C10.7443 86.8865 12.7481 84.1618 15.2184 84.1618C17.6886 84.1618 19.6863 86.8928 19.6863 90.2549Z" fill="#3F3D56"/>
<path opacity="0.1" d="M19.6863 90.2548C19.6899 90.7934 19.6391 91.331 19.5349 91.8587C19.5137 91.9579 19.4925 92.0555 19.4713 92.1499C19.4031 92.1499 19.338 92.1499 19.2698 92.142C18.7775 92.1136 18.2882 92.0436 17.8068 91.9327C17.3797 92.0713 16.9433 92.1766 16.5012 92.2475C16.1625 92.3006 15.8212 92.3337 15.4789 92.3467C15.3638 92.3467 15.2487 92.3467 15.1336 92.3467C14.7237 92.3471 14.3144 92.3187 13.9083 92.2617C13.2519 92.171 12.6073 92.0047 11.9863 91.7659C11.6457 91.8834 11.2988 91.9801 10.9473 92.0555C10.9321 91.9894 10.9185 91.9233 10.9034 91.8571C10.7966 91.3297 10.7433 90.7921 10.7443 90.2532C10.7443 86.891 12.7481 84.1664 15.2184 84.1664C17.6886 84.1664 19.6863 86.8926 19.6863 90.2548Z" fill="black"/>
<path d="M29.2312 78.9154C29.2318 77.439 28.8982 75.9831 28.2573 74.6655L22.9942 76.367L27.6136 73.5432C26.8393 72.3797 25.8233 71.4118 24.6407 70.7111C23.4582 70.0103 22.1393 69.5947 20.7814 69.4948C20.5645 69.1495 20.3262 68.8193 20.068 68.5063L12.5043 70.9508L18.7049 67.1699C17.52 66.224 16.129 65.5964 14.655 65.3425C13.181 65.0887 11.6695 65.2164 10.2544 65.7145C8.83926 66.2126 7.56412 67.0656 6.54187 68.198C5.51963 69.3305 4.78182 70.7074 4.39377 72.2068L10.8685 79.9511L3.83792 74.6749C2.05205 75.9831 0.77897 77.9156 0.251523 80.1191C-0.275924 82.3226 -0.022485 84.6498 0.965486 86.6751C1.95346 88.7003 3.60993 90.2883 5.63194 91.1485C7.65395 92.0087 9.90636 92.0837 11.9772 91.3598C13.848 92.0719 15.8916 92.1283 17.7962 91.5203C19.1249 91.8238 20.5021 91.8139 21.8266 91.4914C23.1511 91.1688 24.3893 90.5418 25.4499 89.6565C26.5106 88.7712 27.3668 87.65 27.9556 86.3755C28.5445 85.101 28.8509 83.7055 28.8525 82.2917C28.8525 82.0808 28.8449 81.873 28.8313 81.6621C29.0943 80.7721 29.229 79.8465 29.2312 78.9154V78.9154Z" fill="#57B894"/>
<path opacity="0.1" d="M29.0736 80.6689C26.2948 80.122 23.4454 80.0842 20.6541 80.5572C17.4947 81.1018 14.2657 82.2965 11.176 81.4229C9.3585 80.9098 7.79244 79.7245 6.02645 79.0618C4.31566 78.4428 2.47293 78.3306 0.704261 78.7376C0.0296258 80.413 -0.166441 82.2549 0.139504 84.043C0.445449 85.8312 1.24046 87.4899 2.42948 88.8209C3.6185 90.1519 5.15122 91.0989 6.84438 91.5486C8.53754 91.9983 10.3195 91.9316 11.9772 91.3567C13.8477 92.0699 15.8913 92.1274 17.7961 91.5204C19.1248 91.8239 20.5021 91.8139 21.8266 91.4914C23.1511 91.1688 24.3892 90.5419 25.4499 89.6565C26.5105 88.7712 27.3668 87.6501 27.9556 86.3756C28.5445 85.1011 28.8509 83.7056 28.8525 82.2918C28.8525 82.0808 28.8449 81.8731 28.8313 81.6622C28.9301 81.3361 29.011 81.0045 29.0736 80.6689Z" fill="black"/>
</g>
<defs>
<clipPath id="clip0">
<rect width="161" height="101" fill="white"/>
</clipPath>
</defs>
</svg>
