<svg width="108" height="101" viewBox="0 0 108 101" fill="none" xmlns="http://www.w3.org/2000/svg">
<g clip-path="url(#clip0)">
<path d="M15.3786 49.9579C16.6333 49.9579 17.6505 48.8965 17.6505 47.5872C17.6505 46.2779 16.6333 45.2166 15.3786 45.2166C14.1239 45.2166 13.1068 46.2779 13.1068 47.5872C13.1068 48.8965 14.1239 49.9579 15.3786 49.9579Z" fill="#D62828"/>
<path d="M25.3398 69.4704C26.5945 69.4704 27.6117 68.409 27.6117 67.0997C27.6117 65.7904 26.5945 64.729 25.3398 64.729C24.0851 64.729 23.068 65.7904 23.068 67.0997C23.068 68.409 24.0851 69.4704 25.3398 69.4704Z" fill="#D62828"/>
<path d="M17.6505 64.5467C18.9052 64.5467 19.9224 63.4853 19.9224 62.176C19.9224 60.8667 18.9052 59.8053 17.6505 59.8053C16.3958 59.8053 15.3787 60.8667 15.3787 62.176C15.3787 63.4853 16.3958 64.5467 17.6505 64.5467Z" fill="#D62828"/>
<path d="M18.3751 95.8253C18.335 95.7569 17.3894 94.1093 17.0615 90.6879C16.7608 87.549 16.9542 82.258 19.5837 74.8776C24.5653 60.896 18.4357 49.6148 18.3731 49.5024L18.6755 49.3193C18.6913 49.3478 20.273 52.2241 21.2074 56.8041C22.442 62.8762 21.9924 69.1898 19.9114 75.0048C14.9383 88.9626 18.6355 95.5701 18.6734 95.6353L18.3751 95.8253Z" fill="#CFCCE0"/>
<path d="M16.4273 48.8638C15.9434 48.8638 15.4704 48.714 15.068 48.4335C14.6657 48.153 14.3521 47.7542 14.1669 47.2877C13.9817 46.8212 13.9333 46.3079 14.0277 45.8127C14.1221 45.3174 14.3551 44.8625 14.6973 44.5055C15.0394 44.1484 15.4754 43.9053 15.95 43.8067C16.4246 43.7082 16.9165 43.7588 17.3636 43.952C17.8106 44.1453 18.1927 44.4725 18.4616 44.8923C18.7304 45.3122 18.8739 45.8058 18.8739 46.3107C18.8732 46.9876 18.6152 47.6365 18.1565 48.1152C17.6978 48.5938 17.0759 48.863 16.4273 48.8638ZM16.4273 44.1224C16.0125 44.1224 15.6071 44.2508 15.2622 44.4912C14.9173 44.7317 14.6486 45.0734 14.4898 45.4733C14.3311 45.8732 14.2896 46.3132 14.3705 46.7376C14.4514 47.1621 14.6511 47.5521 14.9444 47.8581C15.2377 48.1641 15.6114 48.3726 16.0182 48.457C16.425 48.5414 16.8466 48.4981 17.2298 48.3325C17.613 48.1668 17.9405 47.8864 18.171 47.5265C18.4014 47.1666 18.5244 46.7435 18.5244 46.3107C18.5237 45.7306 18.3026 45.1743 17.9095 44.7641C17.5163 44.3538 16.9833 44.1231 16.4273 44.1224Z" fill="#CFCCE0"/>
<path d="M23.5922 57.4347C24.847 57.4347 25.8641 56.3733 25.8641 55.064C25.8641 53.7547 24.847 52.6933 23.5922 52.6933C22.3375 52.6933 21.3204 53.7547 21.3204 55.064C21.3204 56.3733 22.3375 57.4347 23.5922 57.4347Z" fill="#CFCCE0"/>
<path d="M18.6989 63.4525C18.2151 63.4525 17.742 63.3028 17.3397 63.0223C16.9373 62.7417 16.6238 62.343 16.4386 61.8765C16.2534 61.41 16.205 60.8967 16.2994 60.4014C16.3938 59.9062 16.6268 59.4513 16.9689 59.0942C17.3111 58.7372 17.7471 58.494 18.2216 58.3955C18.6962 58.297 19.1882 58.3475 19.6352 58.5408C20.0823 58.734 20.4644 59.0612 20.7332 59.4811C21.0021 59.9009 21.1456 60.3945 21.1456 60.8995C21.1448 61.5764 20.8868 62.2253 20.4282 62.7039C19.9695 63.1825 19.3476 63.4518 18.6989 63.4525ZM18.6989 58.7112C18.2842 58.7112 17.8787 58.8395 17.5339 59.08C17.189 59.3204 16.9202 59.6622 16.7615 60.0621C16.6028 60.4619 16.5612 60.9019 16.6422 61.3264C16.7231 61.7509 16.9228 62.1408 17.2161 62.4469C17.5094 62.7529 17.883 62.9613 18.2898 63.0458C18.6966 63.1302 19.1183 63.0869 19.5015 62.9212C19.8847 62.7556 20.2122 62.4751 20.4426 62.1153C20.673 61.7554 20.796 61.3323 20.796 60.8995C20.7954 60.3193 20.5743 59.7631 20.1811 59.3528C19.788 58.9426 19.2549 58.7118 18.6989 58.7112V58.7112Z" fill="#CFCCE0"/>
<path d="M24.6407 68.3762C24.1568 68.3762 23.6838 68.2265 23.2814 67.9459C22.8791 67.6654 22.5655 67.2667 22.3803 66.8002C22.1951 66.3337 22.1467 65.8203 22.2411 65.3251C22.3355 64.8299 22.5685 64.375 22.9107 64.0179C23.2529 63.6609 23.6888 63.4177 24.1634 63.3192C24.638 63.2207 25.1299 63.2712 25.577 63.4645C26.024 63.6577 26.4061 63.9849 26.675 64.4048C26.9438 64.8246 27.0873 65.3182 27.0873 65.8232C27.0866 66.5001 26.8286 67.149 26.3699 67.6276C25.9112 68.1062 25.2894 68.3754 24.6407 68.3762ZM24.6407 63.6349C24.2259 63.6349 23.8205 63.7632 23.4756 64.0037C23.1308 64.2441 22.862 64.5859 22.7032 64.9857C22.5445 65.3856 22.503 65.8256 22.5839 66.2501C22.6648 66.6746 22.8645 67.0645 23.1578 67.3705C23.4511 67.6766 23.8248 67.885 24.2316 67.9694C24.6384 68.0539 25.06 68.0105 25.4432 67.8449C25.8264 67.6793 26.1539 67.3988 26.3844 67.0389C26.6148 66.6791 26.7378 66.256 26.7378 65.8232C26.7372 65.243 26.516 64.6868 26.1229 64.2765C25.7297 63.8663 25.1967 63.6355 24.6407 63.6349Z" fill="#CFCCE0"/>
<path d="M16.9515 75.853C18.2062 75.853 19.2233 74.7916 19.2233 73.4823C19.2233 72.173 18.2062 71.1116 16.9515 71.1116C15.6968 71.1116 14.6797 72.173 14.6797 73.4823C14.6797 74.7916 15.6968 75.853 16.9515 75.853Z" fill="#CFCCE0"/>
<path d="M19.7475 95.9125C19.7475 95.9125 17.4756 90.077 24.2912 85.7004L19.7475 95.9125Z" fill="#CFCCE0"/>
<path d="M16.9535 95.8066C16.9535 95.8066 15.9195 89.6011 7.91702 89.6543L16.9535 95.8066Z" fill="#CFCCE0"/>
<path d="M98.9716 98.1008H60.3024C60.3024 98.1008 59.5185 86.1045 64.1562 85.9681C68.7939 85.8318 68.2714 91.2847 74.0848 83.787C79.8982 76.2893 86.9528 76.6982 87.8672 81.1287C88.7817 85.5592 86.1036 89.1035 91.0026 88.013C95.9016 86.9224 102.956 89.7852 98.9716 98.1008Z" fill="#D62828"/>
<path d="M78.9844 98.1035L78.8538 98.0981C79.1582 90.1998 80.7434 85.125 82.0196 82.2587C83.4053 79.1464 84.7406 77.8865 84.7539 77.8741L84.8408 77.976C84.8276 77.9883 83.5079 79.2357 82.1333 82.3269C80.8641 85.1811 79.2876 90.235 78.9844 98.1035Z" fill="#F2F2F2"/>
<path d="M92.9797 98.1199L92.8543 98.0818C94.3644 92.673 97.9206 89.258 97.9564 89.2241L98.0442 89.325C98.0087 89.3586 94.4791 92.7495 92.9797 98.1199Z" fill="#F2F2F2"/>
<path d="M66.393 98.1102L66.2636 98.0914C66.7759 94.2355 65.8505 91.2439 64.9838 89.4133C64.0455 87.4311 62.9748 86.3485 62.9641 86.3378L63.0545 86.2394C63.0653 86.2503 64.1526 87.3495 65.1009 89.3529C65.9757 91.2007 66.9099 94.22 66.393 98.1102Z" fill="#F2F2F2"/>
<path d="M104.22 98.2832H56.1315L56.1205 98.1132C56.0928 97.6903 55.4794 87.7158 58.5765 84.1569C59.2689 83.3613 60.1029 82.9437 61.0554 82.9157C63.0742 82.8558 64.3429 83.6449 65.3662 84.2782C67.2949 85.4722 68.5691 86.2611 73.2018 80.2861C78.2204 73.8133 83.6353 72.4208 86.7482 73.1951C88.7594 73.6955 90.1456 75.1098 90.5514 77.0753C90.9355 78.9365 90.8132 80.6853 90.7149 82.0905C90.6097 83.594 90.5265 84.7815 91.1183 85.3197C91.6123 85.7687 92.5983 85.8096 94.2211 85.4482C97.5219 84.7134 102.128 85.3421 104.439 88.459C105.683 90.1358 106.663 93.1839 104.268 98.1824L104.22 98.2832ZM56.4597 97.9184H104.003C105.788 94.1401 105.844 90.9482 104.163 88.6822C102.042 85.823 97.5931 85.0704 94.294 85.8049C92.5309 86.1975 91.4803 86.1327 90.8887 85.5947C90.1652 84.9368 90.2539 83.669 90.3662 82.0639C90.463 80.682 90.5833 78.9621 90.2097 77.1521C89.8335 75.3294 88.5423 74.0164 86.6671 73.5499C83.6536 72.7997 78.39 74.1747 73.4735 80.5155C68.6509 86.7353 67.1982 85.8363 65.188 84.5919C64.152 83.9508 62.9758 83.2237 61.0653 83.2802C60.2115 83.3054 59.4612 83.6828 58.8353 84.4021C56.0517 87.6006 56.3915 96.57 56.4597 97.9184Z" fill="#CFCCE0"/>
<path d="M55.1875 11.2932C55.1875 11.2932 52.4878 10.2871 50.7524 14.3115C49.0169 18.3359 46.3172 22.7627 46.3172 22.7627L47.8599 23.1652C47.8599 23.1652 48.2455 20.3481 49.2097 19.9456L48.824 23.5676C48.824 23.5676 60.3939 27.7932 65.6004 23.1652L65.4076 21.7566C65.4076 21.7566 66.1789 21.9578 66.1789 23.1652L66.7574 22.5615C66.7574 22.5615 66.1789 21.3542 64.4434 19.7444C63.3043 18.6878 62.9129 16.6777 62.7784 15.421C62.6776 14.3715 62.2752 13.3784 61.624 12.5718C60.4707 11.177 58.3692 9.6946 55.1875 11.2932Z" fill="#2F2E41"/>
<path d="M52.3398 27.0718L49.5437 23.4246L47.4466 15.9478L55.4854 7.0122C55.4854 7.0122 57.233 0.0825378 55.6602 0.447257C54.0874 0.811977 53.7379 5.91804 53.7379 5.91804L43.602 14.1242C43.602 14.1242 44.6505 25.6129 47.6214 29.6248L49.8932 37.1015L52.3398 27.0718Z" fill="#FFB9B9"/>
<path d="M60.0292 27.0718L62.8253 23.4246L64.9224 15.9478L56.8835 7.0122C56.8835 7.0122 55.136 0.0825378 56.7088 0.447257C58.2816 0.811977 58.6311 5.91804 58.6311 5.91804L68.767 14.1242C68.767 14.1242 67.7185 25.6129 64.7476 29.6248L62.4758 37.1015L60.0292 27.0718Z" fill="#FFB9B9"/>
<path d="M56.1846 23.9717C58.694 23.9717 60.7282 21.8489 60.7282 19.2304C60.7282 16.6118 58.694 14.489 56.1846 14.489C53.6751 14.489 51.6409 16.6118 51.6409 19.2304C51.6409 21.8489 53.6751 23.9717 56.1846 23.9717Z" fill="#FFB9B9"/>
<path d="M54.0873 21.7833C54.0873 21.7833 54.262 25.6129 53.2135 26.8894C52.1649 28.1659 51.1164 34.7308 56.1844 34.9132C61.2523 35.0956 60.7281 29.4424 60.7281 29.4424L59.6795 26.3423C59.6795 26.3423 58.1067 23.9716 58.631 21.7833H54.0873Z" fill="#FFB9B9"/>
<path d="M49.369 64.2732L53.1263 65.4585C53.1263 65.4585 56.1845 63.5438 56.1845 65.3674C56.1845 67.191 55.136 69.5616 55.4855 71.2029C55.835 72.8441 56.534 76.856 55.4855 76.856C54.4369 76.856 52.3398 69.744 52.3398 69.744L48.8447 67.738L49.369 64.2732Z" fill="#FFB9B9"/>
<path d="M54.0874 89.8035L52.6893 95.4566C52.6893 95.4566 51.466 97.0979 52.6893 97.8273C53.2634 98.1696 53.6835 98.8733 53.9677 99.5238C54.2155 100.11 54.6301 100.602 55.1551 100.933C55.6802 101.265 56.2903 101.42 56.9026 101.377C57.4991 101.325 58.0016 101.079 58.1238 100.439C58.1576 100.239 58.151 100.033 58.1044 99.8351C58.0578 99.6372 57.9723 99.4516 57.8532 99.2902C56.5641 97.4724 56.2719 96.2772 56.2719 96.2772L56.7961 89.8946L54.0874 89.8035Z" fill="#FFB9B9"/>
<path d="M50.7035 20.0724C50.7035 20.0724 52.2461 17.859 53.596 17.4565C54.9458 17.0541 55.1386 15.0419 55.1386 15.0419C55.1386 15.0419 58.6096 19.0663 60.7307 19.2675C62.8519 19.4687 60.9236 14.4382 60.9236 14.4382L57.0669 13.4321L53.4031 13.8346L50.5107 15.8468L50.7035 20.0724Z" fill="#2F2E41"/>
<path d="M47.796 50.4138L47.097 51.8726C47.097 51.8726 30.1455 57.5258 31.5436 62.8142C32.9417 68.1026 40.8057 66.6438 40.8057 66.6438L49.5436 68.285L50.4174 64.2731L44.3009 62.6318L54.7863 58.62L55.1358 77.2206L53.7378 90.5328L57.2329 90.8976C57.2329 90.8976 61.0776 78.6795 60.5533 73.5734C60.5533 73.5734 67.0193 52.7844 63.3494 49.6843C59.6795 46.5842 47.796 50.4138 47.796 50.4138Z" fill="#2F2E41"/>
<path d="M56.3894 29.445L53.6625 26.0061L51.8155 26.8894L49.8932 33.272C49.8932 33.272 48.3204 36.3721 50.2427 39.6546C50.2427 39.6546 50.5922 41.8429 50.068 42.39C49.5437 42.9371 49.3689 46.4019 49.3689 46.4019L47.0971 50.9609C47.0971 50.9609 60.0292 53.3316 63.8738 50.0491C63.8738 50.0491 61.8564 42.2876 63.0797 39.9169C64.303 37.5463 64.4777 33.912 63.0797 32.2707C61.6816 30.6295 60.2039 26.3424 60.2039 26.3424L59.3576 25.7775L56.3894 29.445Z" fill="#CFCCE0"/>
<path d="M66.5841 2.21828H64.908V0.469299H64.7557V2.21828H63.0797V2.37719H64.7557V4.12617H64.908V2.37719H66.5841V2.21828Z" fill="#CFCCE0"/>
<path d="M50.6548 -1.43858H48.9787V-3.18756H48.8264V-1.43858H47.1504V-1.27967H48.8264V0.469311H48.9787V-1.27967H50.6548V-1.43858Z" fill="#CFCCE0"/>
</g>
<defs>
<clipPath id="clip0">
<rect width="108" height="101" fill="white"/>
</clipPath>
</defs>
</svg>
