<svg width="562" height="361" viewBox="0 0 562 361" fill="none" xmlns="http://www.w3.org/2000/svg">
<g clip-path="url(#clip0)">
<path opacity="0.1" d="M552.363 103.078C547.422 91.6299 540.745 81.0095 532.566 71.5906L257.909 68.8909L484.044 37.1886C469.437 31.3793 453.885 28.2995 438.163 28.1027C416.531 10.8356 389.892 1.00209 362.21 0.0654313C334.528 -0.871231 307.283 7.13905 284.529 22.9042C266.344 13.5754 246.185 8.72905 225.738 8.77067C164.714 8.77067 113.863 50.9613 102.454 106.911L552.363 103.078Z" fill="#6C63FF" fill-opacity="0.5"/>
<path opacity="0.1" d="M562 150.001C562.014 134.83 559.108 119.797 553.442 105.719L77.427 155.593C72.5317 164.452 68.7857 173.897 66.2793 183.7L213.684 205.627L62.9158 221.615C67.4508 284.951 121.849 334.967 188.305 334.967C221.752 334.967 252.143 322.29 274.667 301.62C297.256 322.679 327.939 335.629 361.749 335.629C411.913 335.629 455.204 307.12 475.367 265.898C515.817 253.107 547.214 220.907 557.991 180.653L371.569 151.815H561.973C561.973 151.212 562 150.609 562 150.001Z" fill="#6C63FF" fill-opacity="0.5"/>
</g>
<g clip-path="url(#clip1)">
<path d="M561 312.173C561 293.998 552.522 279.263 542.063 279.263C535.489 279.263 529.7 285.086 526.304 293.924C525.157 293.406 523.928 293.137 522.685 293.134C519.52 293.134 516.593 294.898 514.206 297.885C511.145 286.866 504.655 279.263 497.142 279.263C490.118 279.263 483.992 285.914 480.723 295.785C478.907 294.118 476.618 293.181 474.242 293.134C466.215 293.134 459.708 304.441 459.708 318.39C459.675 323.04 460.452 327.654 461.998 331.99H557.181C559.577 326.477 561 319.615 561 312.173Z" fill="#FF931F"/>
<path d="M561 332.942H42.5945V331.812H560.481L561 332.942Z" fill="#2F2E41"/>
<path d="M518.406 262.877H0V261.747H517.886L518.406 262.877Z" fill="#2F2E41"/>
<path d="M220.052 158.853C220.052 158.853 223.317 132.809 228.759 139.912C234.2 147.015 228.759 157.67 228.759 157.67L224.405 163.589L220.052 160.037V158.853Z" fill="#FFB8B8"/>
<path d="M206.992 167.14C206.992 167.14 217.875 154.118 220.052 156.486C222.229 158.853 228.759 160.037 227.67 164.773C226.582 169.508 203.727 184.898 203.727 184.898L206.992 167.14Z" fill="#D62828"/>
<path opacity="0.1" d="M206.992 167.14C206.992 167.14 217.875 154.118 220.052 156.486C222.229 158.853 228.759 160.037 227.67 164.773C226.582 169.508 203.727 184.898 203.727 184.898L206.992 167.14Z" fill="black"/>
<path d="M144.958 165.957V175.427C144.958 175.427 143.87 196.737 150.4 195.553C156.93 194.369 153.665 176.611 153.665 176.611L152.576 165.957H144.958Z" fill="#FFB8B8"/>
<path d="M148.223 234.62C148.223 234.62 138.428 251.194 135.163 252.378C131.898 253.561 114.485 264.216 112.308 274.871L97.072 296.18L104.69 306.835C104.69 306.835 139.516 266.584 149.311 263.032C159.106 259.481 168.901 241.723 168.901 241.723L148.223 234.62Z" fill="#FFB8B8"/>
<path d="M225.493 207.391C225.493 207.391 246.172 210.943 242.907 225.149C239.642 239.355 208.08 268.951 208.08 268.951L206.992 276.054L195.021 278.422L189.579 272.503L190.667 268.951C190.667 268.951 203.727 255.929 204.815 251.193C205.904 246.458 217.875 227.517 223.317 226.333L215.699 221.597L225.493 207.391Z" fill="#FFB8B8"/>
<path d="M100.337 296.18C100.337 296.18 104.69 289.077 98.1604 290.261C91.6305 291.444 87.2772 292.628 87.2772 297.364C87.2772 302.099 92.7188 335.247 99.2487 332.879C105.779 330.511 100.337 319.857 100.337 319.857C100.337 319.857 103.602 310.386 105.779 309.202C107.955 308.018 107.955 302.099 105.779 302.099C103.602 302.099 99.2487 298.547 100.337 296.18Z" fill="#2F2E41"/>
<path d="M192.844 270.135C192.844 270.135 192.844 264.216 188.491 270.135C184.138 276.054 181.961 280.79 186.314 284.341C190.668 287.893 205.904 296.18 205.904 296.18C205.904 296.18 222.229 299.731 220.052 291.444C220.052 291.444 209.169 285.525 209.169 280.79C209.169 276.054 209.169 267.767 205.904 270.135C202.639 272.503 192.844 273.687 192.844 270.135Z" fill="#2F2E41"/>
<path d="M172.166 181.347C172.166 181.347 156.93 183.714 158.018 207.391C158.018 207.391 138.428 228.7 143.87 235.804C149.311 242.907 161.283 255.929 165.636 252.377C169.989 248.826 183.049 221.597 183.049 221.597C183.049 221.597 213.522 233.436 218.964 227.517C224.405 221.597 229.847 207.391 229.847 207.391L202.639 192.001L172.166 181.347Z" fill="#2F2E41"/>
<path d="M214.611 113.867C221.823 113.867 227.67 107.507 227.67 99.661C227.67 91.8152 221.823 85.4548 214.611 85.4548C207.398 85.4548 201.551 91.8152 201.551 99.661C201.551 107.507 207.398 113.867 214.611 113.867Z" fill="#FFB8B8"/>
<path d="M204.816 100.845C204.816 100.845 197.197 113.867 195.021 115.051C192.844 116.235 210.257 128.073 210.257 128.073C210.257 128.073 210.257 112.683 215.699 109.132L204.816 100.845Z" fill="#FFB8B8"/>
<path d="M203.727 113.867C203.727 113.867 186.314 107.948 183.049 117.419C179.784 126.89 172.166 144.647 173.254 156.486C174.343 168.324 176.519 165.957 173.254 169.508C169.989 173.06 167.813 170.692 168.901 175.427C169.989 180.163 171.078 180.163 169.989 182.531C168.901 184.898 183.049 193.185 195.021 194.369L206.992 195.553C206.992 195.553 206.992 174.244 209.169 169.508C211.346 164.773 215.699 155.302 215.699 151.75V142.353C215.699 136.099 214.198 129.952 211.346 124.522C211.346 124.522 204.816 113.867 203.727 113.867Z" fill="#D62828"/>
<path d="M190.667 118.603C190.667 118.603 150.4 122.154 146.046 133.993C141.693 145.831 139.516 169.508 143.87 169.508C148.223 169.508 153.665 171.876 154.753 169.508C155.841 167.14 160.194 143.463 161.283 143.463C162.371 143.463 195.021 139.912 195.021 139.912C195.021 139.912 209.169 120.97 190.667 118.603Z" fill="#D62828"/>
<path d="M215.135 96.1391C215.135 96.1391 218.601 89.5877 222.933 95.2782C227.265 100.969 234.312 90.5114 233.23 88.2801C232.149 86.0487 228.328 88.3804 221.781 86.0522C215.234 83.724 202.621 78.9811 200.509 94.4528C198.397 109.925 203.427 108.303 203.427 108.303C203.427 108.303 205.733 94.5929 207.817 98.5309L209.901 102.469L211.709 102.953L215.135 96.1391Z" fill="#2F2E41"/>
<path opacity="0.3" d="M100.772 247.339C100.772 234.123 93.2505 223.41 83.9717 223.41C78.1398 223.41 73.0035 227.644 69.9911 234.07C68.9566 233.69 67.8722 233.496 66.7804 233.495C63.9569 233.547 61.2612 234.785 59.2575 236.95C56.542 228.938 50.7839 223.41 44.119 223.41C37.8875 223.41 32.4524 228.246 29.552 235.423C27.8507 234.181 25.851 233.51 23.802 233.495C16.6811 233.495 10.9085 241.717 10.9085 251.859C10.8876 255.28 11.5823 258.661 12.9398 261.747H97.3841C99.6485 257.348 100.817 252.381 100.772 247.339Z" fill="#FF931F"/>
</g>
<defs>
<clipPath id="clip0">
<rect width="519" height="361" fill="white" transform="translate(43)"/>
</clipPath>
<clipPath id="clip1">
<rect width="561" height="333" fill="white"/>
</clipPath>
</defs>
</svg>
