<svg width="659" height="379" viewBox="0 0 659 379" fill="none" xmlns="http://www.w3.org/2000/svg">
<g clip-path="url(#clip0)">
<path opacity="0.1" d="M607.212 103.078C602.265 91.6299 595.577 81.0095 587.385 71.5906L312.306 68.8909L538.789 37.1885C524.159 31.3793 508.583 28.2995 492.837 28.1027C471.171 10.8356 444.491 1.00208 416.767 0.065416C389.042 -0.871246 361.756 7.13903 338.967 22.9042C320.753 13.5754 300.563 8.72904 280.086 8.77065C218.968 8.77065 168.038 50.9612 156.612 106.911L607.212 103.078Z" fill="#6C63FF" fill-opacity="0.5"/>
<path opacity="0.1" d="M616.865 150.001C616.878 134.83 613.969 119.797 608.294 105.719L131.546 155.593C126.643 164.452 122.892 173.897 120.381 183.7L268.013 205.627L117.013 221.615C121.555 284.951 176.036 334.967 242.594 334.967C276.093 334.967 306.531 322.29 329.09 301.62C351.713 322.679 382.444 335.629 416.305 335.629C466.547 335.629 509.905 307.12 530.099 265.898C570.61 253.107 602.056 220.907 612.85 180.653L426.141 151.815H616.837C616.837 151.212 616.865 150.609 616.865 150.001Z" fill="#6C63FF" fill-opacity="0.5"/>
</g>
<path d="M292.89 281.748C292.89 262.208 282.931 246.368 270.645 246.368C262.923 246.368 256.122 252.628 252.134 262.129C250.786 261.572 249.342 261.283 247.882 261.279C244.164 261.279 240.726 263.176 237.922 266.387C234.326 254.541 226.702 246.368 217.877 246.368C209.626 246.368 202.43 253.518 198.589 264.13C196.456 262.337 193.767 261.331 190.976 261.279C181.547 261.279 173.904 273.436 173.904 288.432C173.865 293.431 174.778 298.392 176.594 303.052H288.404C291.219 297.126 292.89 289.748 292.89 281.748Z" fill="#FF931F"/>
<path opacity="0.3" d="M568.692 286.908C568.692 272.7 559.857 261.183 548.957 261.183C542.106 261.183 536.073 265.734 532.534 272.643C531.319 272.234 530.045 272.026 528.763 272.025C525.446 272.081 522.279 273.412 519.925 275.739C516.736 267.125 509.972 261.183 502.143 261.183C494.822 261.183 488.438 266.382 485.031 274.097C483.032 272.762 480.683 272.041 478.276 272.025C469.912 272.025 463.131 280.864 463.131 291.768C463.106 295.445 463.922 299.081 465.517 302.398H564.712C567.372 297.668 568.744 292.328 568.692 286.908Z" fill="#FF931F"/>
<path d="M608.965 303.613H0V302.398H608.355L608.965 303.613Z" fill="#2F2E41"/>
<path d="M397.419 85.3834C407.756 85.3834 416.136 77.0409 416.136 66.7499C416.136 56.4589 407.756 48.1165 397.419 48.1165C387.082 48.1165 378.702 56.4589 378.702 66.7499C378.702 77.0409 387.082 85.3834 397.419 85.3834Z" fill="#2F2E41"/>
<path d="M391.436 80.5421C391.436 80.5421 392.405 97.8985 390.468 97.8985C388.53 97.8985 402.575 106.095 402.575 106.095L411.292 101.273V95.4879C411.292 95.4879 399.669 94.0416 404.512 81.5064C409.355 68.9712 391.436 80.5421 391.436 80.5421Z" fill="#9F616A"/>
<path d="M350.756 270.98L349.303 285.444L354.146 286.89L358.02 283.034L359.473 270.98H350.756Z" fill="#9F616A"/>
<path d="M420.493 279.177L422.914 288.336L429.694 292.676L436.959 288.819L428.726 275.319L420.493 279.177Z" fill="#9F616A"/>
<path d="M396.037 88.015C403.793 88.015 410.081 81.7552 410.081 74.0334C410.081 66.3116 403.793 60.0519 396.037 60.0519C388.28 60.0519 381.992 66.3116 381.992 74.0334C381.992 81.7552 388.28 88.015 396.037 88.015Z" fill="#9F616A"/>
<path d="M387.562 126.344L384.172 124.897C384.172 124.897 378.36 121.522 377.876 114.773C377.392 108.023 382.719 99.3448 382.719 99.3448L390.467 96.9342L399.571 104.311L399.669 116.219L387.562 126.344Z" fill="#9F616A"/>
<path d="M384.172 100.309L382.234 99.3448C382.234 99.3448 372.549 98.8627 371.58 110.434C370.612 122.005 367.222 141.289 367.222 141.289C367.222 141.289 359.473 154.789 359.957 169.253L356.083 181.788C356.083 181.788 350.756 200.108 357.052 200.108C363.347 200.108 362.863 180.341 362.863 180.341C362.863 180.341 374.486 152.378 375.454 147.557C376.423 142.736 384.656 120.076 382.234 113.808C379.813 107.541 384.172 100.309 384.172 100.309Z" fill="#9F616A"/>
<path d="M391.436 130.683V135.986C391.436 135.986 394.826 139.843 393.373 142.254C391.92 144.664 390.468 149.485 390.468 149.485L397.248 160.092L420.009 162.021L424.535 131.83L391.436 130.683Z" fill="#9F616A"/>
<path d="M412.744 96.9343L416.619 95.0059C416.619 95.0059 424.852 89.2204 431.632 88.2561L452.456 74.2746L466.016 41.9724C466.016 41.9724 465.531 24.616 469.406 26.5445C473.28 28.473 472.796 43.4188 472.796 43.4188C472.796 43.4188 465.532 73.3103 459.236 81.5064C452.94 89.7025 430.179 103.202 430.179 103.202C430.179 103.202 423.883 110.434 424.367 113.809C424.852 117.183 412.744 96.9343 412.744 96.9343Z" fill="#9F616A"/>
<path d="M394.826 149.485C394.826 149.485 389.499 146.111 386.109 151.896C382.719 157.682 376.423 159.128 372.549 176.484C368.675 193.841 359.473 221.322 357.052 223.25C354.63 225.179 344.46 245.428 350.272 273.873H359.958L368.19 232.893C368.19 232.893 394.826 200.108 396.763 186.609L405.48 237.232C405.48 237.232 405.965 256.516 413.229 265.677L420.977 283.997L431.147 279.176L419.525 232.893C419.525 232.893 425.336 186.127 421.462 173.109L420.905 156.043C420.905 156.043 404.996 156.717 394.826 149.485Z" fill="#2F2E41"/>
<path d="M354.146 283.034H348.335C347.366 283.034 339.618 289.301 343.007 292.676C346.397 296.051 351.725 302.318 351.725 302.318C351.725 302.318 370.612 304.71 371.096 301.335C371.58 297.96 362.863 290.747 362.863 290.747L360.442 283.034C360.442 283.034 355.599 277.73 354.146 283.034Z" fill="#2F2E41"/>
<path d="M431.147 287.855C431.147 287.855 422.915 287.373 421.462 286.891C420.009 286.408 417.103 299.426 421.462 300.39C425.82 301.354 443.739 302.801 443.739 302.801C443.739 302.801 457.783 302.319 456.815 298.462C455.846 294.605 436.959 286.891 436.959 286.891C436.959 286.891 434.538 282.069 431.147 287.855Z" fill="#2F2E41"/>
<path d="M392.889 96.4522L390.467 95.0058L387.562 97.4164C387.562 97.4164 396.279 103.202 394.342 108.505C392.405 113.809 384.172 124.897 384.172 124.897C384.172 124.897 391.436 133.093 391.436 135.986C391.436 135.986 410.323 129.236 424.367 135.986C424.367 135.986 424.367 126.344 426.304 124.415C428.242 122.487 429.21 115.737 424.367 109.952C420.955 105.694 417.879 101.181 415.166 96.4522L410.323 93.5594L407.829 94.3471C407.829 94.3471 412.744 99.827 407.902 100.309C403.059 100.791 395.31 99.3449 392.889 96.4522Z" fill="#D62828"/>
<path d="M411.099 34.9816C409.453 36.81 407.199 37.9852 404.753 38.2908C400.522 38.8925 403.846 45.5109 403.846 45.5109C403.846 45.5109 402.637 43.1042 405.055 40.9984C407.472 38.8925 411.099 37.6892 411.099 34.9816Z" fill="#2F2E41"/>
<path d="M402.942 52.0875C405.823 52.0875 408.158 49.7626 408.158 46.8946C408.158 44.0266 405.823 41.7017 402.942 41.7017C400.061 41.7017 397.726 44.0266 397.726 46.8946C397.726 49.7626 400.061 52.0875 402.942 52.0875Z" fill="#2F2E41"/>
<path d="M409.032 52.0081C405.002 49.9126 398.069 48.2645 394.386 48.3823L395.318 44.8361C398.579 47.0415 405.475 48.7204 409.963 48.4618L409.032 52.0081Z" fill="#D62828"/>
<path d="M400.706 52.3203C400.706 52.3203 394.356 60.4482 381.656 62.2545C368.956 64.0607 378.935 83.9291 378.935 83.9291C378.935 83.9291 375.306 76.7042 382.563 70.3824C389.82 64.0607 400.706 60.4482 400.706 52.3203Z" fill="#2F2E41"/>
<path d="M401.191 51.838C401.191 51.838 404.819 64.4815 410.262 66.2878C415.705 68.094 412.984 87.0593 403.912 88.8655C403.912 88.8655 411.623 78.4798 407.087 70.3518C402.551 62.2238 399.83 55.902 401.191 51.838Z" fill="#2F2E41"/>
<path d="M486.598 30.6425H453.182V34.4994H486.598V30.6425Z" fill="#2F2E41"/>
<path d="M486.598 44.1419C488.203 44.1419 489.504 38.9614 489.504 32.5709C489.504 26.1805 488.203 21 486.598 21C484.993 21 483.692 26.1805 483.692 32.5709C483.692 38.9614 484.993 44.1419 486.598 44.1419Z" fill="#2F2E41"/>
<path d="M453.182 44.1419C454.787 44.1419 456.088 38.9614 456.088 32.5709C456.088 26.1805 454.787 21 453.182 21C451.578 21 450.277 26.1805 450.277 32.5709C450.277 38.9614 451.578 44.1419 453.182 44.1419Z" fill="#2F2E41"/>
<path d="M503.548 290.034H470.132V293.891H503.548V290.034Z" fill="#2F2E41"/>
<path d="M503.548 303.533C505.153 303.533 506.454 298.352 506.454 291.962C506.454 285.571 505.153 280.391 503.548 280.391C501.943 280.391 500.642 285.571 500.642 291.962C500.642 298.352 501.943 303.533 503.548 303.533Z" fill="#2F2E41"/>
<path d="M470.132 303.533C471.737 303.533 473.038 298.352 473.038 291.962C473.038 285.571 471.737 280.391 470.132 280.391C468.527 280.391 467.227 285.571 467.227 291.962C467.227 298.352 468.527 303.533 470.132 303.533Z" fill="#2F2E41"/>
<path opacity="0.3" d="M212.345 286.672C212.345 272.464 203.509 260.947 192.609 260.947C185.759 260.947 179.725 265.499 176.187 272.407C174.971 271.998 173.698 271.79 172.415 271.789C169.098 271.845 165.932 273.176 163.578 275.503C160.388 266.89 153.624 260.947 145.795 260.947C138.475 260.947 132.09 266.146 128.683 273.862C126.685 272.526 124.336 271.805 121.929 271.789C113.564 271.789 106.783 280.628 106.783 291.532C106.759 295.209 107.574 298.845 109.169 302.162H208.365C211.025 297.432 212.397 292.092 212.345 286.672Z" fill="#FF931F"/>
<defs>
<clipPath id="clip0">
<rect width="519.798" height="361" fill="white" transform="translate(97.0662)"/>
</clipPath>
</defs>
</svg>
