<svg width="569" height="400" viewBox="0 0 569 400" fill="none" xmlns="http://www.w3.org/2000/svg">
<g clip-path="url(#clip0)">
<path opacity="0.1" d="M47.4858 296.922C52.4952 308.37 59.2662 318.991 67.5606 328.409L346.073 331.109L116.764 362.811C131.576 368.621 147.346 371.701 163.289 371.897C185.225 389.164 212.238 398.998 240.309 399.935C268.379 400.871 296.007 392.861 319.08 377.096C337.521 386.425 357.963 391.271 378.696 391.229C440.577 391.229 492.142 349.039 503.711 293.089L47.4858 296.922Z" fill="#6C63FF" fill-opacity="0.5"/>
<path opacity="0.1" d="M37.713 249.999C37.6993 265.17 40.6452 280.203 46.3907 294.281L529.09 244.407C534.054 235.548 537.852 226.103 540.394 216.3L390.919 194.373L543.805 178.385C539.206 115.049 484.044 65.0334 416.655 65.0334C382.738 65.0334 351.921 77.7097 329.08 98.3802C306.175 77.3214 275.06 64.371 240.776 64.371C189.907 64.371 146.008 92.8802 125.562 134.102C84.5449 146.893 52.7064 179.093 41.778 219.347L230.818 248.185L37.7408 248.185C37.7408 248.788 37.713 249.391 37.713 249.999Z" fill="#6C63FF" fill-opacity="0.5"/>
</g>
<g clip-path="url(#clip1)">
<path d="M300.909 381C448.971 381 569 365.972 569 347.433C569 328.895 448.971 313.866 300.909 313.866C152.846 313.866 32.8175 328.895 32.8175 347.433C32.8175 365.972 152.846 381 300.909 381Z" fill="#2F2E41"/>
<path d="M383.239 271.934C383.239 273 383.207 274.065 383.148 275.088C383.148 275.243 383.148 275.392 383.148 275.547C382.862 280.048 382.041 284.499 380.702 288.808C380.664 288.941 380.616 289.085 380.573 289.218C379.202 293.507 377.36 297.633 375.082 301.521L374.851 301.905C372.404 306.002 369.534 309.834 366.287 313.339L365.955 313.69C362.307 317.587 358.265 321.101 353.895 324.176C353.746 324.288 353.59 324.4 353.44 324.501C348.862 327.691 343.993 330.445 338.897 332.727C338.196 333.042 337.489 333.351 336.756 333.655L336.114 333.921C328.316 337.116 320.146 339.323 311.796 340.49L310.774 340.629C306.085 341.245 301.361 341.553 296.632 341.551C261.582 341.551 231.393 324.81 217.77 300.722C216.853 299.113 216.016 297.472 215.26 295.799L214.949 295.111C212.058 288.563 210.411 281.537 210.095 274.39C210.095 274.215 210.095 274.044 210.095 273.858C210.095 273.218 210.068 272.574 210.068 271.929C210.066 266.947 210.721 261.987 212.016 257.175C212.054 257.026 212.091 256.882 212.134 256.739C213.495 251.836 215.474 247.124 218.022 242.715C218.091 242.592 218.161 242.465 218.236 242.342C220.747 238.072 223.719 234.088 227.1 230.46C227.189 230.351 227.284 230.246 227.384 230.146L227.427 230.104C227.85 229.656 228.278 229.203 228.717 228.761L229.375 228.1C229.809 227.669 230.253 227.248 230.697 226.821H230.724C231.794 225.82 232.885 224.848 233.994 223.907C235.536 222.607 237.147 221.355 238.812 220.151L239.171 219.884C243.59 216.747 248.288 214.016 253.205 211.727C253.35 211.658 253.5 211.583 253.644 211.525C259.185 208.978 264.954 206.955 270.875 205.482C271.062 205.429 271.244 205.387 271.41 205.344C278.744 203.562 286.248 202.571 293.795 202.387C294.047 202.387 294.298 202.387 294.555 202.387C295.24 202.387 295.931 202.36 296.621 202.36C331.355 202.36 361.314 218.808 375.114 242.534C375.237 242.747 375.355 242.96 375.478 243.168L376.013 244.1C376.307 244.633 376.586 245.166 376.864 245.731C376.992 245.986 377.116 246.237 377.239 246.493C377.314 246.642 377.394 246.791 377.464 246.946C379.483 251.125 380.997 255.529 381.976 260.063C382.019 260.239 382.051 260.41 382.088 260.596C382.851 264.328 383.237 268.126 383.239 271.934Z" fill="#FF931F"/>
<g opacity="0.2">
<path opacity="0.2" d="M375.494 243.12C371.536 241.628 367.611 240.076 363.718 238.463C339.423 228.453 316.043 216.372 293.838 202.355H294.598C320.056 218.349 347.04 231.799 375.156 242.507C375.258 242.715 375.376 242.912 375.494 243.12Z" fill="#2F2E41"/>
</g>
<g opacity="0.2">
<path opacity="0.2" d="M382.083 260.532C372.448 257.335 362.915 253.783 353.483 249.876C328.939 239.769 305.328 227.55 282.918 213.358C278.693 210.683 274.679 208.045 270.875 205.445L271.41 205.312C275.125 207.838 279.05 210.409 283.186 213.027C314.101 232.58 347.267 248.358 381.97 260.021C382.013 260.191 382.045 260.362 382.083 260.532Z" fill="#2F2E41"/>
</g>
<g opacity="0.2">
<path opacity="0.2" d="M383.148 275.088C383.148 275.243 383.148 275.397 383.148 275.546C369.699 271.465 356.415 266.727 343.297 261.331C318.749 251.216 295.134 238.988 272.721 224.786C265.629 220.294 259.12 215.893 253.221 211.695L253.66 211.487C259.511 215.648 265.972 220.012 272.984 224.456C307.27 246.152 344.321 263.181 383.148 275.088Z" fill="#2F2E41"/>
</g>
<g opacity="0.2">
<path opacity="0.2" d="M380.675 288.803C380.638 288.947 380.589 289.085 380.547 289.224C364.415 284.641 348.559 279.144 333.057 272.76C308.511 262.649 284.9 250.422 262.492 236.22C253.682 230.642 245.776 225.197 238.812 220.119L239.17 219.858C246.129 224.914 253.987 230.333 262.754 235.89C299.324 259.038 339.033 276.856 380.675 288.803Z" fill="#2F2E41"/>
</g>
<g opacity="0.2">
<path opacity="0.2" d="M375.055 301.521L374.825 301.905C357.143 297.087 339.783 291.172 322.844 284.194C298.298 274.08 274.685 261.853 252.274 247.654C242.832 241.671 234.417 235.837 227.116 230.45C227.202 230.349 227.298 230.242 227.4 230.141C234.712 235.522 243.121 241.33 252.558 247.324C280.59 265.093 322.577 287.199 375.055 301.521Z" fill="#2F2E41"/>
</g>
<g opacity="0.2">
<path opacity="0.2" d="M366.265 313.339L365.934 313.69C347.795 308.813 329.991 302.78 312.631 295.628C288.085 285.515 264.472 273.288 242.061 259.088C233.111 253.409 225.082 247.873 218.022 242.715C218.091 242.593 218.161 242.47 218.236 242.347C225.296 247.51 233.347 253.062 242.323 258.753C270.628 276.692 313.124 299.033 366.265 313.339Z" fill="#2F2E41"/>
</g>
<g opacity="0.2">
<path opacity="0.2" d="M353.874 324.176C353.724 324.288 353.569 324.4 353.419 324.501C336.076 319.732 319.044 313.908 302.418 307.062C277.871 296.95 254.258 284.724 231.848 270.522C224.622 265.94 217.99 261.465 212 257.176C212.037 257.032 212.075 256.888 212.118 256.744C218.15 261.044 224.825 265.573 232.116 270.192C260.03 287.881 301.749 309.849 353.874 324.176Z" fill="#2F2E41"/>
</g>
<g opacity="0.2">
<path opacity="0.2" d="M336.75 333.655L336.108 333.921C321.214 329.555 306.563 324.406 292.216 318.496C278.299 312.769 264.59 306.306 251.219 299.182C241.156 293.811 231.298 288.069 221.645 281.956C217.61 279.399 213.766 276.877 210.116 274.39C210.116 274.215 210.116 274.044 210.116 273.858C213.855 276.397 217.797 278.983 221.94 281.615C230.734 287.194 240.905 293.193 252.338 299.251C279.237 313.524 307.519 325.051 336.75 333.655Z" fill="#2F2E41"/>
</g>
<g opacity="0.2">
<path opacity="0.2" d="M311.796 340.491L310.774 340.629C301.078 337.4 291.479 333.832 281.976 329.925C261.413 321.452 241.503 311.489 222.406 300.114C220.022 298.694 217.649 297.255 215.287 295.799L214.976 295.111C217.577 296.724 220.286 298.367 223.102 300.04C251.127 316.643 280.863 330.204 311.796 340.491Z" fill="#2F2E41"/>
</g>
<path opacity="0.1" d="M338.876 332.728C338.174 333.042 337.468 333.351 336.734 333.655L336.092 333.921C328.301 337.114 320.139 339.321 311.796 340.491L310.774 340.629C306.085 341.245 301.361 341.553 296.632 341.551C261.582 341.551 231.393 324.81 217.77 300.722C219.301 300.487 220.837 300.29 222.379 300.114L223.075 300.04C227.218 299.603 231.393 299.358 235.557 299.182C240.767 298.91 245.988 298.91 251.198 299.182C251.562 299.182 251.926 299.225 252.269 299.257C255.819 299.507 259.345 300.02 262.819 300.791C273.39 303.178 283.079 308.362 292.682 313.365C307.514 321.07 322.678 328.582 338.876 332.728Z" fill="black"/>
<path opacity="0.1" d="M375.135 242.486C361.336 218.76 331.377 202.312 296.643 202.312C295.952 202.312 295.262 202.312 294.577 202.312H293.816C286.27 202.494 278.765 203.485 271.431 205.269L270.896 205.403C264.977 206.88 259.208 208.902 253.666 211.445L253.227 211.652C248.308 213.941 243.61 216.674 239.192 219.815L238.833 220.076C234.72 223.027 230.907 226.371 227.448 230.061C226.998 234.606 226.228 239.055 224.236 243.152C222.834 246.029 221.383 248.8 223.369 251.677C224.702 253.611 227.587 256.062 230.044 256.158C236.794 256.43 240.546 247.446 243.726 242.971C248.597 236.119 255.817 231.361 262.872 226.763C265.886 224.797 268.932 222.815 272.331 221.637C275.197 220.714 278.179 220.192 281.189 220.087C289.395 219.628 297.783 220.87 305.277 224.253C313.841 228.116 321.442 234.776 330.788 235.698C335.022 236.114 339.352 235.298 343.5 236.263C350.871 237.984 355.983 244.905 363.156 247.324C367.796 248.89 372.791 248.389 377.512 246.855C376.901 245.576 376.247 244.317 375.547 243.077C375.376 242.912 375.258 242.715 375.135 242.486Z" fill="black"/>
<path d="M165.206 269.185C162.669 271.849 159.822 274.188 157.204 276.772C147.51 286.363 141.296 298.825 132.582 309.273C130.232 312.092 127.678 314.799 125.928 318.017C124.178 321.235 123.3 325.151 124.552 328.593C125.623 331.545 128.091 333.756 130.489 335.797C131.968 337.148 133.592 338.333 135.333 339.329C139.358 341.46 144.122 341.577 148.683 341.647C151.198 341.684 154.265 341.402 155.341 339.137C151.265 337.203 147.51 334.659 144.208 331.593C142.318 329.834 140.536 327.82 139.77 325.364C138.464 321.176 140.397 316.615 143.132 313.179C145.867 309.742 149.394 306.988 152.065 303.503C154.736 300.019 156.46 296.017 159.677 293.172C161.904 291.206 164.671 289.975 167.171 288.339C170.821 285.947 173.835 282.729 176.806 279.543L192.596 262.637C192.977 262.313 193.239 261.873 193.34 261.385C193.405 260.751 192.933 260.196 192.484 259.738C189.047 256.227 182.571 250.062 177.85 254.687C173.3 259.142 169.612 264.56 165.206 269.185Z" fill="#A0616A"/>
<path opacity="0.1" d="M165.206 269.185C162.669 271.849 159.822 274.188 157.204 276.772C147.51 286.363 141.296 298.825 132.582 309.273C130.232 312.092 127.678 314.799 125.928 318.017C124.178 321.235 123.3 325.151 124.552 328.593C125.623 331.545 128.091 333.756 130.489 335.797C131.968 337.148 133.592 338.333 135.333 339.329C139.358 341.46 144.122 341.577 148.683 341.647C151.198 341.684 154.265 341.402 155.341 339.137C151.265 337.203 147.51 334.659 144.208 331.593C142.318 329.834 140.536 327.82 139.77 325.364C138.464 321.176 140.397 316.615 143.132 313.179C145.867 309.742 149.394 306.988 152.065 303.503C154.736 300.019 156.46 296.017 159.677 293.172C161.904 291.206 164.671 289.975 167.171 288.339C170.821 285.947 173.835 282.729 176.806 279.543L192.596 262.637C192.977 262.313 193.239 261.873 193.34 261.385C193.405 260.751 192.933 260.196 192.484 259.738C189.047 256.227 182.571 250.062 177.85 254.687C173.3 259.142 169.612 264.56 165.206 269.185Z" fill="black"/>
<path d="M187.774 238.453C190.958 237.781 194.39 239.47 197.467 238.421C199.212 237.824 200.545 236.439 201.803 235.096L206.942 229.645C208.392 228.106 209.87 226.534 210.763 224.616C211.556 222.921 211.834 221.051 212.219 219.218C213.162 214.53 214.773 209.724 218.311 206.495C222.721 202.456 229.519 201.7 235.183 203.628C240.846 205.557 245.454 209.862 248.843 214.785C245.813 218.408 242.419 221.754 239.395 225.378C238.429 226.646 237.292 227.777 236.018 228.74C234.607 229.596 233.09 230.264 231.505 230.727C226.062 232.645 220.265 235.421 218.022 240.722C217.24 242.566 216.951 244.575 216.523 246.53C215.699 250.228 214.195 253.888 211.475 256.536C208.756 259.184 204.651 260.633 201.027 259.488C197.018 258.22 194.561 254.309 192.495 250.665C190.298 246.86 188.705 242.741 187.774 238.453Z" fill="#A0616A"/>
<path opacity="0.1" d="M187.774 238.453C190.958 237.781 194.39 239.47 197.467 238.421C199.212 237.824 200.545 236.439 201.803 235.096L206.942 229.645C208.392 228.106 209.87 226.534 210.763 224.616C211.556 222.921 211.834 221.051 212.219 219.218C213.162 214.53 214.773 209.724 218.311 206.495C222.721 202.456 229.519 201.7 235.183 203.628C240.846 205.557 245.454 209.862 248.843 214.785C245.813 218.408 242.419 221.754 239.395 225.378C238.429 226.646 237.292 227.777 236.018 228.74C234.607 229.596 233.09 230.264 231.505 230.727C226.062 232.645 220.265 235.421 218.022 240.722C217.24 242.566 216.951 244.575 216.523 246.53C215.699 250.228 214.195 253.888 211.475 256.536C208.756 259.184 204.651 260.633 201.027 259.488C197.018 258.22 194.561 254.309 192.495 250.665C190.298 246.86 188.705 242.741 187.774 238.453Z" fill="black"/>
<path d="M327.217 217.289C347.333 224.456 367.331 232.943 383.956 246.327C391.568 252.46 398.35 259.536 405.587 266.105C409.376 269.547 413.289 272.845 417.202 276.149L444.977 299.592C448.414 302.496 451.866 305.405 455.683 307.835C464.659 313.578 475.365 316.498 484.154 322.673C484.138 325.862 484.663 329.031 485.706 332.045C486.104 333.155 486.857 334.105 487.849 334.749C488.841 335.392 490.017 335.695 491.198 335.61C505.04 334.816 519.075 341.503 533.019 339.819C533.421 339.775 533.808 339.64 534.149 339.422C534.489 339.205 534.775 338.912 534.983 338.567C535.92 336.937 534.32 335.413 532.917 334.438L513.985 321.245C510.864 319.072 507.743 316.898 504.564 314.814C493.066 307.291 480.787 300.903 470.13 292.266C467.855 290.423 465.666 288.483 463.471 286.538C451.866 276.277 440.256 266.004 429.256 255.103C413.268 239.252 398.146 221.568 382.297 205.578C380.79 203.983 379.166 202.503 377.437 201.151C375.746 199.952 373.973 198.871 372.132 197.917L352.011 186.914C348.965 185.246 345.588 183.525 342.189 184.181C341.347 183.974 340.466 183.978 339.626 184.192C338.785 184.406 338.011 184.823 337.371 185.406C336.076 186.594 335.23 188.166 334.374 189.706C333.256 191.57 332.375 193.566 331.751 195.647C331.034 198.476 331.269 201.508 330.44 204.289C329.904 206.127 328.909 207.805 328.234 209.617C327.35 212.073 327.003 214.689 327.217 217.289Z" fill="#A0616A"/>
<path opacity="0.1" d="M327.217 217.289C347.333 224.456 367.331 232.943 383.956 246.327C391.568 252.46 398.35 259.536 405.587 266.105C409.376 269.547 413.289 272.845 417.202 276.149L444.977 299.592C448.414 302.496 451.866 305.405 455.683 307.835C464.659 313.578 475.365 316.498 484.154 322.673C484.138 325.862 484.663 329.031 485.706 332.045C486.104 333.155 486.857 334.105 487.849 334.749C488.841 335.392 490.017 335.695 491.198 335.61C505.04 334.816 519.075 341.503 533.019 339.819C533.421 339.775 533.808 339.64 534.149 339.422C534.489 339.205 534.775 338.912 534.983 338.567C535.92 336.937 534.32 335.413 532.917 334.438L513.985 321.245C510.864 319.072 507.743 316.898 504.564 314.814C493.066 307.291 480.787 300.903 470.13 292.266C467.855 290.423 465.666 288.483 463.471 286.538C451.866 276.277 440.256 266.004 429.256 255.103C413.268 239.252 398.146 221.568 382.297 205.578C380.79 203.983 379.166 202.503 377.437 201.151C375.746 199.952 373.973 198.871 372.132 197.917L352.011 186.914C348.965 185.246 345.588 183.525 342.189 184.181C341.347 183.974 340.466 183.978 339.626 184.192C338.785 184.406 338.011 184.823 337.371 185.406C336.076 186.594 335.23 188.166 334.374 189.706C333.256 191.57 332.375 193.566 331.751 195.647C331.034 198.476 331.269 201.508 330.44 204.289C329.904 206.127 328.909 207.805 328.234 209.617C327.35 212.073 327.003 214.689 327.217 217.289Z" fill="black"/>
<path d="M190.734 279.889C203.241 279.889 213.381 269.796 213.381 257.346C213.381 244.896 203.241 234.803 190.734 234.803C178.226 234.803 168.086 244.896 168.086 257.346C168.086 269.796 178.226 279.889 190.734 279.889Z" fill="#A0616A"/>
<path d="M328.555 175.944C331.719 175.997 335.311 176.242 337.302 178.688C339.293 181.133 338.843 184.485 338.34 187.5C336.766 197.032 335.128 206.735 330.75 215.355C330.443 216.133 329.898 216.795 329.192 217.247C327.934 217.892 326.441 217.135 325.237 216.394C316.464 210.97 307.691 205.131 297.692 202.541C297.089 202.464 296.535 202.171 296.134 201.716C295.997 201.43 295.918 201.119 295.903 200.803C295.887 200.486 295.935 200.17 296.043 199.872C297.039 195.455 298.296 191.091 299.078 186.626C299.549 183.962 298.677 177.569 301.048 175.917C303.558 174.159 310.79 175.645 313.76 175.693L328.555 175.944Z" fill="#A0616A"/>
<path d="M339.208 219.943C359.323 227.109 379.321 235.597 395.92 248.976C403.531 255.114 410.313 262.189 417.55 268.759C421.34 272.201 425.253 275.499 429.165 278.797L456.941 302.24C460.377 305.139 463.83 308.053 467.646 310.478C476.66 316.243 487.366 319.152 496.123 325.3C496.106 328.491 496.631 331.661 497.675 334.678C498.074 335.787 498.827 336.736 499.818 337.38C500.81 338.023 501.986 338.326 503.167 338.242C517.009 337.443 531.044 344.135 544.988 342.451C545.39 342.407 545.777 342.27 546.118 342.052C546.459 341.834 546.744 341.54 546.952 341.194C547.889 339.596 546.288 338.04 544.886 337.065L525.953 323.878C522.833 321.704 519.712 319.53 516.533 317.447C505.056 309.924 492.777 303.535 482.12 294.904C479.845 293.06 477.656 291.115 475.461 289.176C463.856 278.914 452.246 268.642 441.241 257.74C425.258 241.889 410.136 224.205 394.287 208.189C392.772 206.616 391.142 205.155 389.411 203.82C387.719 202.625 385.946 201.546 384.106 200.591L363.985 189.589C360.94 187.921 357.562 186.2 354.163 186.856C353.321 186.647 352.441 186.649 351.6 186.862C350.76 187.075 349.985 187.492 349.346 188.076C348.05 189.264 347.205 190.841 346.348 192.381C345.231 194.244 344.35 196.238 343.725 198.316C343.008 201.146 343.244 204.177 342.414 206.964C341.879 208.802 340.883 210.48 340.209 212.292C339.332 214.742 338.991 217.351 339.208 219.943Z" fill="#A0616A"/>
<path d="M345.882 221.595L346.519 212.372C346.701 209.793 346.883 207.182 347.681 204.726C348.586 201.939 350.234 199.462 351.91 197.053C352.804 195.649 353.884 194.371 355.121 193.255C356.947 191.725 359.307 190.894 361.009 189.237C361.496 188.763 361.951 188.065 361.662 187.452C361.529 187.223 361.346 187.027 361.127 186.877C356.931 183.451 351.899 181.224 346.932 179.034L337.543 174.899C333.593 180.227 329.573 185.721 327.539 192.04C327.231 193.162 326.847 194.263 326.388 195.332C325.183 197.831 322.898 199.654 321.447 202.019C320.082 204.246 319.515 206.852 318.974 209.404C318.653 210.901 318.343 212.5 318.883 213.933C319.483 215.531 321.024 216.565 322.427 217.497C328.641 221.552 335.204 225.735 342.617 226.31C343.977 226.411 345.786 227.088 346.22 225.777C346.525 224.898 345.813 222.671 345.882 221.595Z" fill="#3F3D56"/>
<path d="M160.362 247.51C158.018 250.638 159.591 255.193 162.022 258.257C164.452 261.321 167.701 263.889 169.06 267.549C172.32 276.303 163.226 285.132 163.536 294.445C163.815 302.747 171.185 308.762 177.453 314.277C190.771 325.998 202.151 342.334 200.652 359.981C206.71 358.214 211.944 354.369 215.426 349.127C217.459 353.568 218.318 358.452 217.92 363.316C231.88 353.805 239.829 336.223 237.725 319.519C236.724 311.613 233.662 303.903 234.139 295.953C234.396 291.643 235.686 287.471 236.617 283.251C237.804 277.811 238.396 272.259 238.383 266.691C238.383 260.34 237.201 253.286 232.169 249.381C227.887 246.061 221.999 245.949 216.571 245.976C210.838 246.013 205.106 246.04 199.384 246.397C193.544 246.759 187.522 248.677 181.773 248.821C175.371 248.981 166.352 239.518 160.362 247.51Z" fill="#3F3D56"/>
<path d="M245.958 205.807C242.172 207.051 238.764 209.226 236.05 212.132C234.342 213.975 232.929 216.08 231.157 217.865C229.048 219.996 226.474 221.594 224.006 223.299C219.29 226.55 214.874 230.199 210.464 233.844L188.732 251.799C185.333 254.607 181.934 257.42 178.727 260.447C174.772 264.176 171.121 268.247 166.898 271.684C164.425 273.698 161.765 275.493 159.495 277.736C157.354 279.868 155.62 282.324 153.864 284.759C146.712 294.641 139.028 304.132 130.847 313.189C127.373 317.042 123.782 320.835 119.558 323.846C110.801 330.127 104.153 339.531 96.456 347.071C95.803 347.71 95.0857 348.621 95.4872 349.447C95.7264 349.842 96.11 350.131 96.5577 350.251C102.189 352.34 107.038 343.245 112.905 344.534C115.581 345.12 117.225 347.641 119.141 349.564C121.057 351.488 124.344 352.905 126.346 351.067C125.66 345.716 126.358 340.281 128.374 335.274C131.656 327.17 138.164 320.782 145.112 315.432C152.06 310.083 159.624 305.522 166.148 299.667C177.095 289.847 185.092 276.452 198.077 269.52C203.163 266.803 208.783 265.215 213.852 262.434C223.664 257.031 230.526 247.516 235.889 237.728C236.521 236.386 237.375 235.159 238.416 234.099C239.535 233.222 240.78 232.516 242.109 232.006C249.006 228.837 255.194 224.324 260.308 218.733C258.702 217.588 257.198 216.362 255.598 215.211C254.295 214.353 253.103 213.338 252.049 212.19C250.978 210.933 250.283 209.425 249.373 208.05C248.463 206.676 247.51 206.303 245.958 205.807Z" fill="#A0616A"/>
<path d="M304.436 207.454C303.023 206.324 302.975 204.257 303.044 202.43C303.276 196.824 303.505 191.221 303.73 185.619C303.885 181.671 304.265 177.249 307.257 174.66C298.603 172.93 289.879 171.603 281.082 170.679C277.592 170.312 274.054 170.008 270.575 170.514C266.384 171.122 262.455 172.869 258.59 174.601C254.308 176.519 249.999 178.453 246.161 181.144C244.683 182.28 243.143 183.333 241.547 184.298C238.635 185.896 235.29 186.429 232.153 187.495C224.905 189.95 218.845 195.02 215.169 201.705C211.492 208.389 210.467 216.203 212.294 223.603C213.365 220.849 214.114 217.966 215.367 215.286C216.619 212.606 218.466 210.075 221.094 208.706C223.835 207.289 227.143 207.299 230.124 208.115C233.106 208.93 235.787 210.502 238.464 212.089C244.427 215.686 250.518 219.884 253.35 226.219C259.238 221.861 265.26 217.694 271.158 213.315C273.717 211.423 276.313 209.516 279.278 208.37C283.175 206.862 287.452 206.772 291.632 206.692C295.813 206.612 300.347 206.378 304.436 207.454Z" fill="#FF6584"/>
<path d="M212.273 223.092L211.561 232.922L214.13 230.812L212.846 222.117L212.273 223.092Z" fill="#FF6584"/>
<path opacity="0.03" d="M256.24 138.343C254.734 138.058 253.175 138.227 251.765 138.828C250.922 139.198 250.011 139.39 249.089 139.393C248.157 139.394 247.236 139.198 246.386 138.818C245.386 138.382 244.303 138.168 243.211 138.19C242.12 138.212 241.046 138.47 240.064 138.946C239.504 139.241 238.879 139.396 238.244 139.398C235.681 139.398 233.55 136.825 233.106 133.436C233.617 133.064 234.051 132.597 234.385 132.062C235.889 129.648 238.218 128.103 240.808 128.103C243.399 128.103 245.722 129.632 247.232 132.014C247.682 132.737 248.314 133.333 249.064 133.742C249.815 134.151 250.658 134.359 251.514 134.347H251.578C253.612 134.337 255.384 135.967 256.24 138.343Z" fill="black"/>
<path d="M69.5748 326.989C69.5874 328.813 69.408 330.632 69.0396 332.419C68.9646 332.754 68.8897 333.085 68.8147 333.404C66.8182 341.37 61.1871 347.199 54.4694 347.572C54.2446 347.572 54.0198 347.572 53.7843 347.572C46.6812 347.572 40.6755 341.471 38.6896 333.069C38.6361 332.845 38.5879 332.621 38.5344 332.397C38.157 330.612 37.9686 328.792 37.9723 326.968C37.9723 315.587 45.054 306.364 53.7843 306.364C62.5146 306.364 69.5748 315.608 69.5748 326.989Z" fill="#3F3D56"/>
<path opacity="0.1" d="M69.5748 326.989C69.5874 328.812 69.408 330.632 69.0396 332.418C68.9646 332.754 68.8897 333.084 68.8147 333.404C68.5739 333.404 68.3437 333.404 68.1028 333.377C66.3628 333.281 64.6335 333.044 62.9321 332.669C61.4229 333.138 59.8806 333.494 58.318 333.734C57.121 333.914 55.9147 334.026 54.705 334.07C54.2982 334.07 53.8913 334.07 53.4845 334.07C52.0362 334.071 50.5895 333.975 49.1542 333.782C46.8344 333.475 44.5562 332.913 42.3616 332.104C41.1578 332.502 39.9318 332.829 38.6896 333.084C38.6361 332.861 38.5879 332.637 38.5344 332.413C38.157 330.628 37.9686 328.808 37.9723 326.984C37.9723 315.603 45.054 306.38 53.7843 306.38C62.5146 306.38 69.5748 315.608 69.5748 326.989Z" fill="black"/>
<path d="M103.308 288.606C103.31 283.608 102.131 278.68 99.8659 274.22L81.2651 279.98L97.5909 270.421C94.8543 266.482 91.2637 263.206 87.0844 260.834C82.905 258.462 78.2437 257.055 73.4448 256.717C72.6784 255.549 71.8362 254.431 70.9237 253.371L44.1922 261.646L66.1062 248.848C61.9186 245.646 57.0025 243.521 51.7932 242.662C46.5839 241.803 41.2421 242.235 36.2407 243.921C31.2394 245.607 26.7328 248.495 23.1201 252.328C19.5073 256.161 16.8997 260.822 15.5283 265.897L38.4112 292.112L13.5639 274.252C7.25231 278.68 2.75304 285.221 0.888956 292.68C-0.975126 300.139 -0.0794328 308.016 3.41222 314.872C6.90387 321.727 12.7581 327.102 19.9042 330.014C27.0503 332.926 35.0107 333.18 42.3294 330.729C48.9411 333.14 56.1637 333.331 62.8946 331.273C67.5904 332.3 72.4578 332.267 77.1388 331.175C81.8199 330.083 86.1956 327.961 89.9441 324.964C93.6927 321.967 96.7187 318.172 98.7998 313.858C100.881 309.544 101.964 304.82 101.969 300.034C101.969 299.321 101.943 298.617 101.895 297.903C102.824 294.89 103.3 291.757 103.308 288.606Z" fill="#57B894"/>
<path opacity="0.1" d="M102.751 294.541C92.9302 292.69 82.86 292.562 72.9951 294.163C61.8293 296.007 50.4173 300.051 39.4977 297.094C33.0745 295.357 27.5397 291.345 21.2985 289.101C15.2523 287.006 8.73974 286.626 2.48899 288.004C0.104721 293.675 -0.588209 299.91 0.49305 305.963C1.57431 312.015 4.384 317.63 8.58619 322.136C12.7884 326.641 18.2053 329.846 24.1892 331.369C30.1731 332.891 36.4708 332.665 42.3293 330.719C48.9399 333.133 56.1624 333.328 62.8945 331.273C67.5903 332.3 72.4577 332.267 77.1387 331.175C81.8198 330.083 86.1955 327.961 89.944 324.964C93.6926 321.967 96.7186 318.172 98.7997 313.858C100.881 309.544 101.964 304.82 101.969 300.035C101.969 299.321 101.943 298.617 101.894 297.903C102.244 296.8 102.53 295.677 102.751 294.541Z" fill="black"/>
</g>
<defs>
<clipPath id="clip0">
<rect width="526.287" height="361" fill="white" transform="translate(564 400) rotate(-180)"/>
</clipPath>
<clipPath id="clip1">
<rect width="569" height="381" fill="white"/>
</clipPath>
</defs>
</svg>
