<svg width="530" height="364" viewBox="0 0 530 364" fill="none" xmlns="http://www.w3.org/2000/svg">
<g clip-path="url(#clip0)">
<path opacity="0.1" d="M10.7046 260.922C15.741 272.37 22.5484 282.991 30.8874 292.409L310.9 295.109L80.3555 326.812C95.2472 332.621 111.103 335.701 127.132 335.897C149.185 353.164 176.344 362.998 204.566 363.935C232.787 364.871 260.563 356.861 283.761 341.096C302.301 350.425 322.853 355.271 343.698 355.229C405.912 355.229 457.755 313.039 469.386 257.089L10.7046 260.922Z" fill="#6C63FF" fill-opacity="0.5"/>
<path opacity="0.1" d="M0.879028 213.999C0.865234 229.17 3.82706 244.203 9.60352 258.281L494.902 208.407C499.892 199.548 503.711 190.103 506.267 180.3L355.987 158.373L509.696 142.385C505.072 79.0491 449.614 29.0334 381.862 29.0334C347.762 29.0334 316.778 41.7098 293.815 62.3802C270.786 41.3215 239.504 28.371 205.036 28.371C153.893 28.371 109.757 56.8803 89.2012 98.1025C47.9631 110.893 15.9532 143.093 4.966 183.347L195.023 212.185L0.907043 212.185C0.907043 212.788 0.879028 213.391 0.879028 213.999Z" fill="#6C63FF" fill-opacity="0.5"/>
</g>
<g clip-path="url(#clip1)">
<path d="M421 305.265C421 315.554 351.156 339 265 339C178.844 339 109 315.554 109 305.265C109 294.976 178.844 301.741 265 301.741C351.156 301.741 421 294.976 421 305.265Z" fill="#3F3D56"/>
<path opacity="0.1" d="M421 305.265C421 315.554 351.156 339 265 339C178.844 339 109 315.554 109 305.265C109 294.976 178.844 301.741 265 301.741C351.156 301.741 421 294.976 421 305.265Z" fill="black"/>
<path d="M153.427 168.311C157.052 168.311 159.99 165.38 159.99 161.765C159.99 158.15 157.052 155.219 153.427 155.219C149.803 155.219 146.864 158.15 146.864 161.765C146.864 165.38 149.803 168.311 153.427 168.311Z" fill="#FF931F"/>
<path d="M182.204 222.186C185.829 222.186 188.767 219.256 188.767 215.64C188.767 212.025 185.829 209.095 182.204 209.095C178.579 209.095 175.641 212.025 175.641 215.64C175.641 219.256 178.579 222.186 182.204 222.186Z" fill="#FF931F"/>
<path d="M159.99 208.591C163.615 208.591 166.553 205.661 166.553 202.046C166.553 198.431 163.615 195.5 159.99 195.5C156.366 195.5 153.427 198.431 153.427 202.046C153.427 205.661 156.366 208.591 159.99 208.591Z" fill="#FF931F"/>
<path d="M162.084 294.954C161.968 294.765 159.236 290.216 158.289 280.769C157.42 272.102 157.979 257.494 165.575 237.116C179.967 198.511 162.259 167.363 162.078 167.053L162.951 166.547C162.997 166.626 167.567 174.568 170.266 187.213C173.833 203.979 172.534 221.411 166.522 237.467C152.155 276.006 162.836 294.25 162.946 294.43L162.084 294.954Z" fill="#CFCCE0"/>
<path d="M156.456 165.289C155.058 165.289 153.692 164.876 152.53 164.101C151.367 163.327 150.461 162.226 149.926 160.938C149.391 159.65 149.251 158.232 149.524 156.865C149.797 155.498 150.47 154.242 151.458 153.256C152.447 152.27 153.706 151.599 155.077 151.327C156.448 151.055 157.87 151.194 159.161 151.728C160.453 152.261 161.556 153.165 162.333 154.324C163.11 155.483 163.524 156.846 163.524 158.24C163.522 160.109 162.777 161.901 161.452 163.222C160.127 164.544 158.33 165.287 156.456 165.289ZM156.456 152.198C155.258 152.198 154.087 152.553 153.09 153.216C152.094 153.88 151.318 154.824 150.859 155.928C150.401 157.032 150.281 158.247 150.514 159.419C150.748 160.591 151.325 161.668 152.172 162.513C153.02 163.358 154.099 163.933 155.274 164.166C156.45 164.399 157.668 164.28 158.775 163.823C159.882 163.365 160.828 162.591 161.494 161.597C162.159 160.604 162.515 159.435 162.515 158.24C162.513 156.638 161.874 155.103 160.738 153.97C159.602 152.837 158.062 152.2 156.456 152.198Z" fill="#CFCCE0"/>
<path d="M177.155 188.954C180.78 188.954 183.719 186.024 183.719 182.409C183.719 178.794 180.78 175.863 177.155 175.863C173.531 175.863 170.592 178.794 170.592 182.409C170.592 186.024 173.531 188.954 177.155 188.954Z" fill="#CFCCE0"/>
<path d="M163.019 205.57C161.621 205.57 160.255 205.157 159.093 204.382C157.93 203.608 157.024 202.507 156.489 201.219C155.954 199.931 155.815 198.513 156.087 197.146C156.36 195.779 157.033 194.522 158.022 193.537C159.01 192.551 160.269 191.879 161.641 191.607C163.012 191.335 164.433 191.475 165.724 192.009C167.016 192.542 168.12 193.446 168.896 194.605C169.673 195.764 170.087 197.127 170.087 198.521C170.085 200.39 169.34 202.182 168.015 203.503C166.69 204.825 164.893 205.568 163.019 205.57ZM163.019 192.479C161.821 192.479 160.65 192.833 159.654 193.497C158.657 194.161 157.881 195.105 157.422 196.209C156.964 197.313 156.844 198.528 157.078 199.7C157.311 200.872 157.888 201.949 158.736 202.794C159.583 203.639 160.662 204.214 161.837 204.447C163.013 204.68 164.231 204.561 165.338 204.103C166.445 203.646 167.391 202.872 168.057 201.878C168.722 200.884 169.078 199.716 169.078 198.521C169.076 196.919 168.437 195.383 167.301 194.251C166.165 193.118 164.626 192.481 163.019 192.479V192.479Z" fill="#CFCCE0"/>
<path d="M180.184 219.165C178.787 219.165 177.42 218.752 176.258 217.977C175.095 217.202 174.189 216.102 173.654 214.813C173.12 213.525 172.98 212.108 173.252 210.741C173.525 209.373 174.198 208.117 175.187 207.131C176.175 206.146 177.434 205.474 178.806 205.202C180.177 204.93 181.598 205.07 182.889 205.603C184.181 206.137 185.285 207.04 186.061 208.2C186.838 209.359 187.252 210.722 187.252 212.116C187.25 213.985 186.505 215.777 185.18 217.098C183.855 218.42 182.058 219.163 180.184 219.165ZM180.184 206.074C178.986 206.074 177.815 206.428 176.819 207.092C175.822 207.756 175.046 208.7 174.587 209.804C174.129 210.908 174.009 212.123 174.243 213.295C174.476 214.467 175.053 215.543 175.901 216.388C176.748 217.233 177.827 217.809 179.003 218.042C180.178 218.275 181.396 218.155 182.503 217.698C183.61 217.241 184.556 216.466 185.222 215.473C185.887 214.479 186.243 213.311 186.243 212.116C186.241 210.514 185.602 208.978 184.466 207.845C183.331 206.713 181.791 206.076 180.184 206.074Z" fill="#CFCCE0"/>
<path d="M157.971 239.809C161.596 239.809 164.534 236.878 164.534 233.263C164.534 229.648 161.596 226.718 157.971 226.718C154.346 226.718 151.408 229.648 151.408 233.263C151.408 236.878 154.346 239.809 157.971 239.809Z" fill="#CFCCE0"/>
<path d="M166.049 295.195C166.049 295.195 159.485 279.083 179.175 266.999L166.049 295.195Z" fill="#CFCCE0"/>
<path d="M157.977 294.903C157.977 294.903 154.99 277.769 131.872 277.916L157.977 294.903Z" fill="#CFCCE0"/>
<path d="M394.918 301.237H283.207C283.207 301.237 280.942 268.114 294.34 267.738C307.738 267.361 306.228 282.417 323.023 261.715C339.817 241.014 360.197 242.143 362.839 254.376C365.481 266.609 357.744 276.395 371.896 273.384C386.049 270.373 406.429 278.277 394.918 301.237Z" fill="#FF931F"/>
<path d="M337.177 301.245L336.8 301.23C337.679 279.422 342.258 265.41 345.945 257.496C349.948 248.903 353.806 245.424 353.844 245.39L354.095 245.671C354.057 245.705 350.245 249.149 346.274 257.684C342.607 265.565 338.053 279.519 337.177 301.245Z" fill="#F2F2F2"/>
<path d="M377.608 301.29L377.246 301.185C381.608 286.25 391.882 276.821 391.985 276.728L392.238 277.006C392.136 277.099 381.94 286.462 377.608 301.29Z" fill="#F2F2F2"/>
<path d="M300.802 301.263L300.428 301.211C301.908 290.565 299.235 282.305 296.731 277.25C294.02 271.777 290.927 268.788 290.896 268.759L291.157 268.487C291.189 268.517 294.33 271.552 297.069 277.083C299.596 282.185 302.295 290.522 300.802 301.263Z" fill="#F2F2F2"/>
<path d="M410.079 301.741H271.158L271.126 301.271C271.046 300.104 269.274 272.563 278.221 262.737C280.221 260.54 282.631 259.387 285.382 259.31C291.214 259.144 294.88 261.323 297.836 263.072C303.408 266.369 307.088 268.547 320.472 252.049C334.97 234.177 350.613 230.333 359.606 232.47C365.416 233.852 369.421 237.757 370.593 243.184C371.703 248.323 371.349 253.152 371.065 257.031C370.761 261.183 370.521 264.462 372.231 265.948C373.658 267.187 376.506 267.3 381.194 266.302C390.73 264.273 404.036 266.009 410.714 274.615C414.307 279.245 417.138 287.661 410.219 301.462L410.079 301.741ZM272.106 300.734H409.454C414.61 290.301 414.771 281.488 409.916 275.232C403.789 267.337 390.936 265.259 381.405 267.287C376.311 268.371 373.276 268.192 371.567 266.707C369.477 264.89 369.734 261.39 370.058 256.958C370.338 253.142 370.685 248.394 369.606 243.396C368.519 238.363 364.789 234.738 359.372 233.45C350.666 231.379 335.46 235.175 321.257 252.683C307.325 269.856 303.128 267.374 297.321 263.938C294.328 262.168 290.93 260.16 285.411 260.316C282.944 260.386 280.777 261.428 278.969 263.414C270.927 272.245 271.909 297.011 272.106 300.734Z" fill="#CFCCE0"/>
<path d="M265 323.895C351.156 323.895 421 315.554 421 305.265C421 294.976 351.156 286.635 265 286.635C178.844 286.635 109 294.976 109 305.265C109 315.554 178.844 323.895 265 323.895Z" fill="#3F3D56"/>
<path d="M268.43 61.5539C268.43 61.5539 260.631 58.776 255.618 69.8877C250.604 80.9994 242.805 93.2223 242.805 93.2223L247.262 94.3335C247.262 94.3335 248.376 86.5552 251.161 85.4441L250.047 95.4446C250.047 95.4446 283.471 107.112 298.512 94.3335L297.955 90.4444C297.955 90.4444 300.183 90.9999 300.183 94.3335L301.854 92.6667C301.854 92.6667 300.183 89.3332 295.17 84.8885C291.879 81.9712 290.748 76.4211 290.359 72.951C290.068 70.0535 288.906 67.3114 287.025 65.0843C283.693 61.2333 277.622 57.1401 268.43 61.5539Z" fill="#2F2E41"/>
<path d="M260.204 105.12L252.126 95.0497L246.068 74.4058L269.291 49.7338C269.291 49.7338 274.34 30.6004 269.796 31.6074C265.252 32.6145 264.243 46.7127 264.243 46.7127L234.961 69.3707C234.961 69.3707 237.99 101.092 246.573 112.169L253.136 132.813L260.204 105.12Z" fill="#FFB9B9"/>
<path d="M282.417 105.12L290.495 95.0497L296.553 74.4058L273.33 49.7338C273.33 49.7338 268.281 30.6004 272.825 31.6074C277.369 32.6145 278.379 46.7127 278.379 46.7127L307.66 69.3707C307.66 69.3707 304.631 101.092 296.048 112.169L289.485 132.813L282.417 105.12Z" fill="#FFB9B9"/>
<path d="M271.311 96.5603C278.56 96.5603 284.437 90.6991 284.437 83.469C284.437 76.2389 278.56 70.3777 271.311 70.3777C264.061 70.3777 258.184 76.2389 258.184 83.469C258.184 90.6991 264.061 96.5603 271.311 96.5603Z" fill="#FFB9B9"/>
<path d="M265.252 90.5182C265.252 90.5182 265.757 101.092 262.728 104.616C259.699 108.141 256.67 126.267 271.311 126.771C285.951 127.274 284.437 111.666 284.437 111.666L281.408 103.106C281.408 103.106 276.864 96.5603 278.379 90.5182H265.252Z" fill="#FFB9B9"/>
<path d="M251.621 207.836L262.476 211.109C262.476 211.109 271.311 205.822 271.311 210.857C271.311 215.892 268.282 222.438 269.291 226.969C270.301 231.501 272.32 242.578 269.291 242.578C266.262 242.578 260.204 222.941 260.204 222.941L250.107 217.403L251.621 207.836Z" fill="#FFB9B9"/>
<path d="M265.252 278.328L261.214 293.936C261.214 293.936 257.68 298.468 261.214 300.482C262.872 301.427 264.086 303.37 264.907 305.166C265.622 306.784 266.82 308.142 268.337 309.058C269.854 309.973 271.616 310.4 273.385 310.282C275.109 310.139 276.56 309.46 276.913 307.694C277.011 307.14 276.992 306.572 276.857 306.025C276.723 305.479 276.475 304.967 276.131 304.521C272.407 299.502 271.563 296.202 271.563 296.202L273.078 278.579L265.252 278.328Z" fill="#FFB9B9"/>
<path d="M255.477 85.7941C255.477 85.7941 259.933 79.6826 263.833 78.5714C267.732 77.4603 268.289 71.9044 268.289 71.9044C268.289 71.9044 278.316 83.0161 284.444 83.5717C290.572 84.1273 285.001 70.2376 285.001 70.2376L273.86 67.4597L263.276 68.5709L254.92 74.1267L255.477 85.7941Z" fill="#2F2E41"/>
<path d="M247.078 169.569L245.058 173.597C245.058 173.597 196.087 189.206 200.126 203.808C204.165 218.41 226.883 214.382 226.883 214.382L252.126 218.913L254.65 207.836L236.981 203.304L267.272 192.227L268.282 243.585L264.243 280.342L274.34 281.349C274.34 281.349 285.447 247.613 283.932 233.515C283.932 233.515 302.612 176.115 292.01 167.555C281.408 158.996 247.078 169.569 247.078 169.569Z" fill="#2F2E41"/>
<path d="M271.903 111.673L264.025 102.177L258.689 104.616L253.136 122.239C253.136 122.239 248.592 130.799 254.146 139.862C254.146 139.862 255.155 145.904 253.641 147.415C252.126 148.925 251.621 158.492 251.621 158.492L245.058 171.08C245.058 171.08 282.418 177.626 293.524 168.562C293.524 168.562 287.696 147.132 291.23 140.587C294.764 134.041 295.269 124.006 291.23 119.475C287.191 114.943 282.922 103.106 282.922 103.106L280.477 101.546L271.903 111.673Z" fill="#CFCCE0"/>
<path d="M301.354 36.4972H296.512V31.6682H296.072V36.4972H291.23V36.936H296.072V41.7651H296.512V36.936H301.354V36.4972Z" fill="#CFCCE0"/>
<path d="M255.336 26.4003H250.494V21.5712H250.054V26.4003H245.212V26.8391H250.054V31.6682H250.494V26.8391H255.336V26.4003Z" fill="#CFCCE0"/>
<path d="M277.425 4.82957H272.583V0.000488281H272.143V4.82957H267.301V5.26835H272.143V10.0974H272.583V5.26835H277.425V4.82957Z" fill="#CFCCE0"/>
</g>
<defs>
<clipPath id="clip0">
<rect width="529.121" height="361" fill="white" transform="translate(530 364) rotate(-180)"/>
</clipPath>
<clipPath id="clip1">
<rect width="312" height="339" fill="white" transform="translate(109 0.000488281)"/>
</clipPath>
</defs>
</svg>
