<svg width="127" height="40" viewBox="0 0 127 40" fill="none" xmlns="http://www.w3.org/2000/svg">
<path d="M0.52 35V0.639999H14.28V7.28H7.52V13.96H14V20.44H7.52V28.32H14.72V35H0.52ZM20.8844 5.72H27.8844V9.44C28.1777 8.24 28.6844 7.26667 29.4044 6.52C30.1244 5.77333 31.0844 5.4 32.2844 5.4C34.2577 5.4 35.711 6.01333 36.6444 7.24C37.6044 8.44 38.0844 10.16 38.0844 12.4V35H31.2044V13.12C31.2044 12.48 31.071 11.9333 30.8044 11.48C30.5644 11.0267 30.1777 10.8 29.6444 10.8C28.9244 10.8 28.4444 11.1333 28.2044 11.8C27.991 12.44 27.8844 13.3067 27.8844 14.4V35H20.8844V5.72ZM53.0453 35.32C50.032 35.32 47.872 34.4933 46.5653 32.84C45.2586 31.1867 44.6053 28.72 44.6053 25.44V13.68C44.6053 10.9867 45.3786 8.93333 46.9253 7.52C48.472 6.10667 50.632 5.4 53.4053 5.4C59.032 5.4 61.8453 8.16 61.8453 13.68V15.8C61.8453 17.9333 61.8186 19.6667 61.7653 21H51.6053V26.68C51.6053 27.6933 51.712 28.4933 51.9253 29.08C52.1386 29.64 52.592 29.92 53.2853 29.92C53.8186 29.92 54.192 29.76 54.4053 29.44C54.6453 29.12 54.7786 28.76 54.8053 28.36C54.8586 27.9333 54.8853 27.32 54.8853 26.52V23.68H61.8453V25.36C61.8453 28.7733 61.1786 31.2933 59.8453 32.92C58.5386 34.52 56.272 35.32 53.0453 35.32ZM54.8853 17.52V13.76C54.8853 11.6533 54.3653 10.6 53.3253 10.6C52.152 10.6 51.5653 11.6533 51.5653 13.76V17.52H54.8853ZM68.3766 5.72H75.3766V8.96C75.7232 7.81333 76.3232 6.93333 77.1766 6.32C78.0566 5.68 79.1366 5.36 80.4166 5.36V11.2C79.4299 11.2 78.3366 11.3467 77.1366 11.64C75.9632 11.9067 75.3766 12.2267 75.3766 12.6V35H68.3766V5.72ZM94.0066 39.28C91.9266 39.28 90.2866 39.1067 89.0866 38.76C87.9132 38.44 86.7532 37.8133 85.6066 36.88L88.0066 32.84C89.7132 33.8533 91.4066 34.36 93.0866 34.36C94.1799 34.36 95.0066 34.0133 95.5666 33.32C96.1266 32.6267 96.4066 31.68 96.4066 30.48V28.88C95.8466 30.88 94.3666 31.88 91.9666 31.88C89.9666 31.88 88.4866 31.2 87.5266 29.84C86.5932 28.48 86.1266 26.6667 86.1266 24.4V13.4C86.1266 10.8133 86.5532 8.84 87.4066 7.48C88.2866 6.09333 89.8066 5.4 91.9666 5.4C93.2199 5.4 94.2066 5.72 94.9266 6.36C95.6732 6.97333 96.1666 7.85333 96.4066 9V5.72H103.567V30.04C103.567 33.32 102.807 35.68 101.287 37.12C99.7666 38.56 97.3399 39.28 94.0066 39.28ZM94.7666 26.6C95.8599 26.6 96.4066 25.6133 96.4066 23.64V13.2C96.4066 12.6133 96.2466 12.0533 95.9266 11.52C95.6066 10.9867 95.2066 10.72 94.7266 10.72C94.1132 10.72 93.6999 10.9467 93.4866 11.4C93.2732 11.8267 93.1666 12.4267 93.1666 13.2V23.64C93.1666 24.52 93.2732 25.24 93.4866 25.8C93.6999 26.3333 94.1266 26.6 94.7666 26.6ZM109.723 35.44H113.083C113.563 35.44 113.803 35.24 113.803 34.84C113.803 34.6533 113.789 34.5067 113.763 34.4L109.203 5.72H115.883L117.203 20L117.843 27.28L118.603 20L120.163 5.72H126.883L121.443 36.52C121.256 37.6667 120.869 38.5067 120.283 39.04C119.723 39.6 118.829 39.88 117.603 39.88H109.723V35.44Z" fill="#FF931F"/>
</svg>
